<svg xmlns="http://www.w3.org/2000/svg" viewBox="0 0 640 280" role="img" aria-label="Nature Ninjas community watch flow">
  <defs>
    <marker id="a2" markerWidth="8" markerHeight="8" refX="6" refY="3" orient="auto">
      <path d="M0,0 L6,3 L0,6 Z" fill="#2D5016"/>
    </marker>
  </defs>
  <style>
    text { font-family: Nunito, Roboto, sans-serif; font-size: 13px; fill: #1A2E1A; text-anchor: middle; }
    .n { fill: #E8F4F0; stroke: #1A6B7C; stroke-width: 2; }
    .t { font-size: 16px; font-weight: bold; fill: #2D5016; }
  </style>
  <text x="320" y="30" class="t">Community watch flow</text>
  <ellipse class="n" cx="80" cy="90" rx="55" ry="28"/>
  <text x="80" y="95">LEARN</text>
  <ellipse class="n" cx="200" cy="90" rx="55" ry="28"/>
  <text x="200" y="95">SPOT</text>
  <ellipse class="n" cx="320" cy="90" rx="50" ry="28"/>
  <text x="320" y="95">PHOTO</text>
  <ellipse class="n" cx="440" cy="90" rx="58" ry="28"/>
  <text x="440" y="95">REPORT</text>
  <ellipse class="n" cx="560" cy="90" rx="55" ry="28"/>
  <text x="560" y="95">PROTECT</text>
  <ellipse class="n" cx="320" cy="200" rx="55" ry="28"/>
  <text x="320" y="205">SHARE</text>
  <line x1="135" y1="90" x2="165" y2="90" stroke="#2D5016" marker-end="url(#a2)"/>
  <line x1="255" y1="90" x2="270" y2="90" stroke="#2D5016" marker-end="url(#a2)"/>
  <line x1="370" y1="90" x2="382" y2="90" stroke="#2D5016" marker-end="url(#a2)"/>
  <line x1="498" y1="90" x2="505" y2="90" stroke="#2D5016" marker-end="url(#a2)"/>
  <line x1="560" y1="118" x2="380" y2="175" stroke="#7CB342" stroke-width="2" marker-end="url(#a2)"/>
  <line x1="280" y1="200" x2="120" y2="110" stroke="#7CB342" stroke-width="2" stroke-dasharray="5 3" marker-end="url(#a2)"/>
  <text x="320" y="250" font-size="11" fill="#4A5D4A">See it · Snap it · Report it · Don't move it</text>
</svg>
