<?xml version="1.0" standalone="no"?>
<svg xmlns="http://www.w3.org/2000/svg" version="1.1" width="1176" height="1176">
	<!-- Created with https://api.qrserver.com (QR Code API, see goQR.me/api for information) -->
	<title>QR Code</title>
	<desc>https://ajithjosephthomas.github.io/ghoulhunters/
Community Invasive Species Watch. Learn to identify and report freshwater gold clam safely.</desc>
	<rect style="fill:rgb(255, 255, 255);fill-opacity:1" x="0" y="0" width="1176" height="1176" />
	<g id="elements">
		<path style="fill:rgb(0, 0, 0)" d="M 0,0 l 24,0 0,24 -24,0 z M 24,0 l 24,0 0,24 -24,0 z M 48,0 l 24,0 0,24 -24,0 z M 72,0 l 24,0 0,24 -24,0 z M 96,0 l 24,0 0,24 -24,0 z M 120,0 l 24,0 0,24 -24,0 z M 144,0 l 24,0 0,24 -24,0 z M 216,0 l 24,0 0,24 -24,0 z M 240,0 l 24,0 0,24 -24,0 z M 288,0 l 24,0 0,24 -24,0 z M 384,0 l 24,0 0,24 -24,0 z M 408,0 l 24,0 0,24 -24,0 z M 432,0 l 24,0 0,24 -24,0 z M 456,0 l 24,0 0,24 -24,0 z M 480,0 l 24,0 0,24 -24,0 z M 504,0 l 24,0 0,24 -24,0 z M 600,0 l 24,0 0,24 -24,0 z M 624,0 l 24,0 0,24 -24,0 z M 648,0 l 24,0 0,24 -24,0 z M 672,0 l 24,0 0,24 -24,0 z M 696,0 l 24,0 0,24 -24,0 z M 720,0 l 24,0 0,24 -24,0 z M 744,0 l 24,0 0,24 -24,0 z M 840,0 l 24,0 0,24 -24,0 z M 888,0 l 24,0 0,24 -24,0 z M 960,0 l 24,0 0,24 -24,0 z M 1008,0 l 24,0 0,24 -24,0 z M 1032,0 l 24,0 0,24 -24,0 z M 1056,0 l 24,0 0,24 -24,0 z M 1080,0 l 24,0 0,24 -24,0 z M 1104,0 l 24,0 0,24 -24,0 z M 1128,0 l 24,0 0,24 -24,0 z M 1152,0 l 24,0 0,24 -24,0 z M 0,24 l 24,0 0,24 -24,0 z M 144,24 l 24,0 0,24 -24,0 z M 264,24 l 24,0 0,24 -24,0 z M 312,24 l 24,0 0,24 -24,0 z M 336,24 l 24,0 0,24 -24,0 z M 384,24 l 24,0 0,24 -24,0 z M 480,24 l 24,0 0,24 -24,0 z M 504,24 l 24,0 0,24 -24,0 z M 528,24 l 24,0 0,24 -24,0 z M 576,24 l 24,0 0,24 -24,0 z M 672,24 l 24,0 0,24 -24,0 z M 792,24 l 24,0 0,24 -24,0 z M 816,24 l 24,0 0,24 -24,0 z M 864,24 l 24,0 0,24 -24,0 z M 912,24 l 24,0 0,24 -24,0 z M 936,24 l 24,0 0,24 -24,0 z M 960,24 l 24,0 0,24 -24,0 z M 1008,24 l 24,0 0,24 -24,0 z M 1152,24 l 24,0 0,24 -24,0 z M 0,48 l 24,0 0,24 -24,0 z M 48,48 l 24,0 0,24 -24,0 z M 72,48 l 24,0 0,24 -24,0 z M 96,48 l 24,0 0,24 -24,0 z M 144,48 l 24,0 0,24 -24,0 z M 192,48 l 24,0 0,24 -24,0 z M 216,48 l 24,0 0,24 -24,0 z M 240,48 l 24,0 0,24 -24,0 z M 360,48 l 24,0 0,24 -24,0 z M 408,48 l 24,0 0,24 -24,0 z M 432,48 l 24,0 0,24 -24,0 z M 504,48 l 24,0 0,24 -24,0 z M 576,48 l 24,0 0,24 -24,0 z M 624,48 l 24,0 0,24 -24,0 z M 648,48 l 24,0 0,24 -24,0 z M 672,48 l 24,0 0,24 -24,0 z M 696,48 l 24,0 0,24 -24,0 z M 744,48 l 24,0 0,24 -24,0 z M 768,48 l 24,0 0,24 -24,0 z M 792,48 l 24,0 0,24 -24,0 z M 936,48 l 24,0 0,24 -24,0 z M 960,48 l 24,0 0,24 -24,0 z M 1008,48 l 24,0 0,24 -24,0 z M 1056,48 l 24,0 0,24 -24,0 z M 1080,48 l 24,0 0,24 -24,0 z M 1104,48 l 24,0 0,24 -24,0 z M 1152,48 l 24,0 0,24 -24,0 z M 0,72 l 24,0 0,24 -24,0 z M 48,72 l 24,0 0,24 -24,0 z M 72,72 l 24,0 0,24 -24,0 z M 96,72 l 24,0 0,24 -24,0 z M 144,72 l 24,0 0,24 -24,0 z M 192,72 l 24,0 0,24 -24,0 z M 216,72 l 24,0 0,24 -24,0 z M 528,72 l 24,0 0,24 -24,0 z M 552,72 l 24,0 0,24 -24,0 z M 600,72 l 24,0 0,24 -24,0 z M 696,72 l 24,0 0,24 -24,0 z M 744,72 l 24,0 0,24 -24,0 z M 816,72 l 24,0 0,24 -24,0 z M 840,72 l 24,0 0,24 -24,0 z M 864,72 l 24,0 0,24 -24,0 z M 888,72 l 24,0 0,24 -24,0 z M 936,72 l 24,0 0,24 -24,0 z M 1008,72 l 24,0 0,24 -24,0 z M 1056,72 l 24,0 0,24 -24,0 z M 1080,72 l 24,0 0,24 -24,0 z M 1104,72 l 24,0 0,24 -24,0 z M 1152,72 l 24,0 0,24 -24,0 z M 0,96 l 24,0 0,24 -24,0 z M 48,96 l 24,0 0,24 -24,0 z M 72,96 l 24,0 0,24 -24,0 z M 96,96 l 24,0 0,24 -24,0 z M 144,96 l 24,0 0,24 -24,0 z M 192,96 l 24,0 0,24 -24,0 z M 240,96 l 24,0 0,24 -24,0 z M 384,96 l 24,0 0,24 -24,0 z M 408,96 l 24,0 0,24 -24,0 z M 456,96 l 24,0 0,24 -24,0 z M 480,96 l 24,0 0,24 -24,0 z M 504,96 l 24,0 0,24 -24,0 z M 528,96 l 24,0 0,24 -24,0 z M 552,96 l 24,0 0,24 -24,0 z M 576,96 l 24,0 0,24 -24,0 z M 600,96 l 24,0 0,24 -24,0 z M 624,96 l 24,0 0,24 -24,0 z M 696,96 l 24,0 0,24 -24,0 z M 720,96 l 24,0 0,24 -24,0 z M 768,96 l 24,0 0,24 -24,0 z M 864,96 l 24,0 0,24 -24,0 z M 888,96 l 24,0 0,24 -24,0 z M 1008,96 l 24,0 0,24 -24,0 z M 1056,96 l 24,0 0,24 -24,0 z M 1080,96 l 24,0 0,24 -24,0 z M 1104,96 l 24,0 0,24 -24,0 z M 1152,96 l 24,0 0,24 -24,0 z M 0,120 l 24,0 0,24 -24,0 z M 144,120 l 24,0 0,24 -24,0 z M 192,120 l 24,0 0,24 -24,0 z M 216,120 l 24,0 0,24 -24,0 z M 240,120 l 24,0 0,24 -24,0 z M 408,120 l 24,0 0,24 -24,0 z M 480,120 l 24,0 0,24 -24,0 z M 528,120 l 24,0 0,24 -24,0 z M 624,120 l 24,0 0,24 -24,0 z M 648,120 l 24,0 0,24 -24,0 z M 744,120 l 24,0 0,24 -24,0 z M 768,120 l 24,0 0,24 -24,0 z M 792,120 l 24,0 0,24 -24,0 z M 816,120 l 24,0 0,24 -24,0 z M 840,120 l 24,0 0,24 -24,0 z M 864,120 l 24,0 0,24 -24,0 z M 912,120 l 24,0 0,24 -24,0 z M 1008,120 l 24,0 0,24 -24,0 z M 1152,120 l 24,0 0,24 -24,0 z M 0,144 l 24,0 0,24 -24,0 z M 24,144 l 24,0 0,24 -24,0 z M 48,144 l 24,0 0,24 -24,0 z M 72,144 l 24,0 0,24 -24,0 z M 96,144 l 24,0 0,24 -24,0 z M 120,144 l 24,0 0,24 -24,0 z M 144,144 l 24,0 0,24 -24,0 z M 192,144 l 24,0 0,24 -24,0 z M 240,144 l 24,0 0,24 -24,0 z M 288,144 l 24,0 0,24 -24,0 z M 336,144 l 24,0 0,24 -24,0 z M 384,144 l 24,0 0,24 -24,0 z M 432,144 l 24,0 0,24 -24,0 z M 480,144 l 24,0 0,24 -24,0 z M 528,144 l 24,0 0,24 -24,0 z M 576,144 l 24,0 0,24 -24,0 z M 624,144 l 24,0 0,24 -24,0 z M 672,144 l 24,0 0,24 -24,0 z M 720,144 l 24,0 0,24 -24,0 z M 768,144 l 24,0 0,24 -24,0 z M 816,144 l 24,0 0,24 -24,0 z M 864,144 l 24,0 0,24 -24,0 z M 912,144 l 24,0 0,24 -24,0 z M 960,144 l 24,0 0,24 -24,0 z M 1008,144 l 24,0 0,24 -24,0 z M 1032,144 l 24,0 0,24 -24,0 z M 1056,144 l 24,0 0,24 -24,0 z M 1080,144 l 24,0 0,24 -24,0 z M 1104,144 l 24,0 0,24 -24,0 z M 1128,144 l 24,0 0,24 -24,0 z M 1152,144 l 24,0 0,24 -24,0 z M 192,168 l 24,0 0,24 -24,0 z M 336,168 l 24,0 0,24 -24,0 z M 384,168 l 24,0 0,24 -24,0 z M 432,168 l 24,0 0,24 -24,0 z M 456,168 l 24,0 0,24 -24,0 z M 480,168 l 24,0 0,24 -24,0 z M 528,168 l 24,0 0,24 -24,0 z M 624,168 l 24,0 0,24 -24,0 z M 648,168 l 24,0 0,24 -24,0 z M 672,168 l 24,0 0,24 -24,0 z M 720,168 l 24,0 0,24 -24,0 z M 768,168 l 24,0 0,24 -24,0 z M 816,168 l 24,0 0,24 -24,0 z M 936,168 l 24,0 0,24 -24,0 z M 960,168 l 24,0 0,24 -24,0 z M 0,192 l 24,0 0,24 -24,0 z M 48,192 l 24,0 0,24 -24,0 z M 72,192 l 24,0 0,24 -24,0 z M 96,192 l 24,0 0,24 -24,0 z M 120,192 l 24,0 0,24 -24,0 z M 144,192 l 24,0 0,24 -24,0 z M 216,192 l 24,0 0,24 -24,0 z M 264,192 l 24,0 0,24 -24,0 z M 480,192 l 24,0 0,24 -24,0 z M 528,192 l 24,0 0,24 -24,0 z M 552,192 l 24,0 0,24 -24,0 z M 576,192 l 24,0 0,24 -24,0 z M 600,192 l 24,0 0,24 -24,0 z M 624,192 l 24,0 0,24 -24,0 z M 720,192 l 24,0 0,24 -24,0 z M 840,192 l 24,0 0,24 -24,0 z M 864,192 l 24,0 0,24 -24,0 z M 888,192 l 24,0 0,24 -24,0 z M 912,192 l 24,0 0,24 -24,0 z M 936,192 l 24,0 0,24 -24,0 z M 960,192 l 24,0 0,24 -24,0 z M 1008,192 l 24,0 0,24 -24,0 z M 1032,192 l 24,0 0,24 -24,0 z M 1056,192 l 24,0 0,24 -24,0 z M 1080,192 l 24,0 0,24 -24,0 z M 1104,192 l 24,0 0,24 -24,0 z M 0,216 l 24,0 0,24 -24,0 z M 48,216 l 24,0 0,24 -24,0 z M 72,216 l 24,0 0,24 -24,0 z M 240,216 l 24,0 0,24 -24,0 z M 264,216 l 24,0 0,24 -24,0 z M 312,216 l 24,0 0,24 -24,0 z M 360,216 l 24,0 0,24 -24,0 z M 408,216 l 24,0 0,24 -24,0 z M 456,216 l 24,0 0,24 -24,0 z M 600,216 l 24,0 0,24 -24,0 z M 672,216 l 24,0 0,24 -24,0 z M 696,216 l 24,0 0,24 -24,0 z M 720,216 l 24,0 0,24 -24,0 z M 744,216 l 24,0 0,24 -24,0 z M 840,216 l 24,0 0,24 -24,0 z M 864,216 l 24,0 0,24 -24,0 z M 984,216 l 24,0 0,24 -24,0 z M 1008,216 l 24,0 0,24 -24,0 z M 1032,216 l 24,0 0,24 -24,0 z M 1080,216 l 24,0 0,24 -24,0 z M 1128,216 l 24,0 0,24 -24,0 z M 48,240 l 24,0 0,24 -24,0 z M 96,240 l 24,0 0,24 -24,0 z M 144,240 l 24,0 0,24 -24,0 z M 216,240 l 24,0 0,24 -24,0 z M 264,240 l 24,0 0,24 -24,0 z M 288,240 l 24,0 0,24 -24,0 z M 336,240 l 24,0 0,24 -24,0 z M 360,240 l 24,0 0,24 -24,0 z M 384,240 l 24,0 0,24 -24,0 z M 408,240 l 24,0 0,24 -24,0 z M 552,240 l 24,0 0,24 -24,0 z M 600,240 l 24,0 0,24 -24,0 z M 624,240 l 24,0 0,24 -24,0 z M 648,240 l 24,0 0,24 -24,0 z M 720,240 l 24,0 0,24 -24,0 z M 768,240 l 24,0 0,24 -24,0 z M 816,240 l 24,0 0,24 -24,0 z M 840,240 l 24,0 0,24 -24,0 z M 912,240 l 24,0 0,24 -24,0 z M 936,240 l 24,0 0,24 -24,0 z M 984,240 l 24,0 0,24 -24,0 z M 1080,240 l 24,0 0,24 -24,0 z M 1128,240 l 24,0 0,24 -24,0 z M 1152,240 l 24,0 0,24 -24,0 z M 24,264 l 24,0 0,24 -24,0 z M 48,264 l 24,0 0,24 -24,0 z M 96,264 l 24,0 0,24 -24,0 z M 192,264 l 24,0 0,24 -24,0 z M 216,264 l 24,0 0,24 -24,0 z M 240,264 l 24,0 0,24 -24,0 z M 288,264 l 24,0 0,24 -24,0 z M 312,264 l 24,0 0,24 -24,0 z M 360,264 l 24,0 0,24 -24,0 z M 408,264 l 24,0 0,24 -24,0 z M 432,264 l 24,0 0,24 -24,0 z M 624,264 l 24,0 0,24 -24,0 z M 648,264 l 24,0 0,24 -24,0 z M 672,264 l 24,0 0,24 -24,0 z M 696,264 l 24,0 0,24 -24,0 z M 720,264 l 24,0 0,24 -24,0 z M 768,264 l 24,0 0,24 -24,0 z M 816,264 l 24,0 0,24 -24,0 z M 840,264 l 24,0 0,24 -24,0 z M 888,264 l 24,0 0,24 -24,0 z M 936,264 l 24,0 0,24 -24,0 z M 1056,264 l 24,0 0,24 -24,0 z M 1128,264 l 24,0 0,24 -24,0 z M 0,288 l 24,0 0,24 -24,0 z M 48,288 l 24,0 0,24 -24,0 z M 96,288 l 24,0 0,24 -24,0 z M 120,288 l 24,0 0,24 -24,0 z M 144,288 l 24,0 0,24 -24,0 z M 192,288 l 24,0 0,24 -24,0 z M 240,288 l 24,0 0,24 -24,0 z M 336,288 l 24,0 0,24 -24,0 z M 360,288 l 24,0 0,24 -24,0 z M 432,288 l 24,0 0,24 -24,0 z M 456,288 l 24,0 0,24 -24,0 z M 528,288 l 24,0 0,24 -24,0 z M 552,288 l 24,0 0,24 -24,0 z M 576,288 l 24,0 0,24 -24,0 z M 600,288 l 24,0 0,24 -24,0 z M 720,288 l 24,0 0,24 -24,0 z M 744,288 l 24,0 0,24 -24,0 z M 816,288 l 24,0 0,24 -24,0 z M 840,288 l 24,0 0,24 -24,0 z M 864,288 l 24,0 0,24 -24,0 z M 888,288 l 24,0 0,24 -24,0 z M 936,288 l 24,0 0,24 -24,0 z M 960,288 l 24,0 0,24 -24,0 z M 1032,288 l 24,0 0,24 -24,0 z M 1128,288 l 24,0 0,24 -24,0 z M 0,312 l 24,0 0,24 -24,0 z M 48,312 l 24,0 0,24 -24,0 z M 120,312 l 24,0 0,24 -24,0 z M 216,312 l 24,0 0,24 -24,0 z M 264,312 l 24,0 0,24 -24,0 z M 312,312 l 24,0 0,24 -24,0 z M 384,312 l 24,0 0,24 -24,0 z M 408,312 l 24,0 0,24 -24,0 z M 432,312 l 24,0 0,24 -24,0 z M 504,312 l 24,0 0,24 -24,0 z M 600,312 l 24,0 0,24 -24,0 z M 672,312 l 24,0 0,24 -24,0 z M 696,312 l 24,0 0,24 -24,0 z M 720,312 l 24,0 0,24 -24,0 z M 792,312 l 24,0 0,24 -24,0 z M 840,312 l 24,0 0,24 -24,0 z M 888,312 l 24,0 0,24 -24,0 z M 1008,312 l 24,0 0,24 -24,0 z M 1032,312 l 24,0 0,24 -24,0 z M 1056,312 l 24,0 0,24 -24,0 z M 1128,312 l 24,0 0,24 -24,0 z M 0,336 l 24,0 0,24 -24,0 z M 24,336 l 24,0 0,24 -24,0 z M 48,336 l 24,0 0,24 -24,0 z M 72,336 l 24,0 0,24 -24,0 z M 96,336 l 24,0 0,24 -24,0 z M 144,336 l 24,0 0,24 -24,0 z M 168,336 l 24,0 0,24 -24,0 z M 192,336 l 24,0 0,24 -24,0 z M 216,336 l 24,0 0,24 -24,0 z M 288,336 l 24,0 0,24 -24,0 z M 312,336 l 24,0 0,24 -24,0 z M 384,336 l 24,0 0,24 -24,0 z M 456,336 l 24,0 0,24 -24,0 z M 576,336 l 24,0 0,24 -24,0 z M 600,336 l 24,0 0,24 -24,0 z M 624,336 l 24,0 0,24 -24,0 z M 768,336 l 24,0 0,24 -24,0 z M 792,336 l 24,0 0,24 -24,0 z M 816,336 l 24,0 0,24 -24,0 z M 840,336 l 24,0 0,24 -24,0 z M 912,336 l 24,0 0,24 -24,0 z M 936,336 l 24,0 0,24 -24,0 z M 1128,336 l 24,0 0,24 -24,0 z M 1152,336 l 24,0 0,24 -24,0 z M 0,360 l 24,0 0,24 -24,0 z M 216,360 l 24,0 0,24 -24,0 z M 240,360 l 24,0 0,24 -24,0 z M 264,360 l 24,0 0,24 -24,0 z M 288,360 l 24,0 0,24 -24,0 z M 336,360 l 24,0 0,24 -24,0 z M 408,360 l 24,0 0,24 -24,0 z M 504,360 l 24,0 0,24 -24,0 z M 552,360 l 24,0 0,24 -24,0 z M 576,360 l 24,0 0,24 -24,0 z M 600,360 l 24,0 0,24 -24,0 z M 624,360 l 24,0 0,24 -24,0 z M 648,360 l 24,0 0,24 -24,0 z M 696,360 l 24,0 0,24 -24,0 z M 720,360 l 24,0 0,24 -24,0 z M 768,360 l 24,0 0,24 -24,0 z M 816,360 l 24,0 0,24 -24,0 z M 888,360 l 24,0 0,24 -24,0 z M 960,360 l 24,0 0,24 -24,0 z M 984,360 l 24,0 0,24 -24,0 z M 1056,360 l 24,0 0,24 -24,0 z M 1152,360 l 24,0 0,24 -24,0 z M 0,384 l 24,0 0,24 -24,0 z M 48,384 l 24,0 0,24 -24,0 z M 96,384 l 24,0 0,24 -24,0 z M 120,384 l 24,0 0,24 -24,0 z M 144,384 l 24,0 0,24 -24,0 z M 264,384 l 24,0 0,24 -24,0 z M 288,384 l 24,0 0,24 -24,0 z M 312,384 l 24,0 0,24 -24,0 z M 336,384 l 24,0 0,24 -24,0 z M 408,384 l 24,0 0,24 -24,0 z M 432,384 l 24,0 0,24 -24,0 z M 480,384 l 24,0 0,24 -24,0 z M 552,384 l 24,0 0,24 -24,0 z M 576,384 l 24,0 0,24 -24,0 z M 624,384 l 24,0 0,24 -24,0 z M 648,384 l 24,0 0,24 -24,0 z M 744,384 l 24,0 0,24 -24,0 z M 792,384 l 24,0 0,24 -24,0 z M 840,384 l 24,0 0,24 -24,0 z M 864,384 l 24,0 0,24 -24,0 z M 888,384 l 24,0 0,24 -24,0 z M 912,384 l 24,0 0,24 -24,0 z M 960,384 l 24,0 0,24 -24,0 z M 1032,384 l 24,0 0,24 -24,0 z M 1104,384 l 24,0 0,24 -24,0 z M 48,408 l 24,0 0,24 -24,0 z M 72,408 l 24,0 0,24 -24,0 z M 216,408 l 24,0 0,24 -24,0 z M 264,408 l 24,0 0,24 -24,0 z M 288,408 l 24,0 0,24 -24,0 z M 336,408 l 24,0 0,24 -24,0 z M 360,408 l 24,0 0,24 -24,0 z M 528,408 l 24,0 0,24 -24,0 z M 576,408 l 24,0 0,24 -24,0 z M 600,408 l 24,0 0,24 -24,0 z M 648,408 l 24,0 0,24 -24,0 z M 672,408 l 24,0 0,24 -24,0 z M 696,408 l 24,0 0,24 -24,0 z M 720,408 l 24,0 0,24 -24,0 z M 744,408 l 24,0 0,24 -24,0 z M 768,408 l 24,0 0,24 -24,0 z M 864,408 l 24,0 0,24 -24,0 z M 888,408 l 24,0 0,24 -24,0 z M 984,408 l 24,0 0,24 -24,0 z M 1008,408 l 24,0 0,24 -24,0 z M 1032,408 l 24,0 0,24 -24,0 z M 24,432 l 24,0 0,24 -24,0 z M 48,432 l 24,0 0,24 -24,0 z M 96,432 l 24,0 0,24 -24,0 z M 144,432 l 24,0 0,24 -24,0 z M 216,432 l 24,0 0,24 -24,0 z M 336,432 l 24,0 0,24 -24,0 z M 384,432 l 24,0 0,24 -24,0 z M 408,432 l 24,0 0,24 -24,0 z M 432,432 l 24,0 0,24 -24,0 z M 504,432 l 24,0 0,24 -24,0 z M 528,432 l 24,0 0,24 -24,0 z M 576,432 l 24,0 0,24 -24,0 z M 624,432 l 24,0 0,24 -24,0 z M 672,432 l 24,0 0,24 -24,0 z M 792,432 l 24,0 0,24 -24,0 z M 816,432 l 24,0 0,24 -24,0 z M 864,432 l 24,0 0,24 -24,0 z M 912,432 l 24,0 0,24 -24,0 z M 936,432 l 24,0 0,24 -24,0 z M 960,432 l 24,0 0,24 -24,0 z M 984,432 l 24,0 0,24 -24,0 z M 1032,432 l 24,0 0,24 -24,0 z M 1080,432 l 24,0 0,24 -24,0 z M 1128,432 l 24,0 0,24 -24,0 z M 1152,432 l 24,0 0,24 -24,0 z M 24,456 l 24,0 0,24 -24,0 z M 72,456 l 24,0 0,24 -24,0 z M 192,456 l 24,0 0,24 -24,0 z M 216,456 l 24,0 0,24 -24,0 z M 264,456 l 24,0 0,24 -24,0 z M 288,456 l 24,0 0,24 -24,0 z M 312,456 l 24,0 0,24 -24,0 z M 432,456 l 24,0 0,24 -24,0 z M 456,456 l 24,0 0,24 -24,0 z M 648,456 l 24,0 0,24 -24,0 z M 672,456 l 24,0 0,24 -24,0 z M 696,456 l 24,0 0,24 -24,0 z M 768,456 l 24,0 0,24 -24,0 z M 840,456 l 24,0 0,24 -24,0 z M 912,456 l 24,0 0,24 -24,0 z M 936,456 l 24,0 0,24 -24,0 z M 1032,456 l 24,0 0,24 -24,0 z M 1056,456 l 24,0 0,24 -24,0 z M 0,480 l 24,0 0,24 -24,0 z M 48,480 l 24,0 0,24 -24,0 z M 72,480 l 24,0 0,24 -24,0 z M 96,480 l 24,0 0,24 -24,0 z M 120,480 l 24,0 0,24 -24,0 z M 144,480 l 24,0 0,24 -24,0 z M 168,480 l 24,0 0,24 -24,0 z M 192,480 l 24,0 0,24 -24,0 z M 240,480 l 24,0 0,24 -24,0 z M 264,480 l 24,0 0,24 -24,0 z M 288,480 l 24,0 0,24 -24,0 z M 312,480 l 24,0 0,24 -24,0 z M 336,480 l 24,0 0,24 -24,0 z M 384,480 l 24,0 0,24 -24,0 z M 408,480 l 24,0 0,24 -24,0 z M 432,480 l 24,0 0,24 -24,0 z M 480,480 l 24,0 0,24 -24,0 z M 504,480 l 24,0 0,24 -24,0 z M 528,480 l 24,0 0,24 -24,0 z M 552,480 l 24,0 0,24 -24,0 z M 576,480 l 24,0 0,24 -24,0 z M 600,480 l 24,0 0,24 -24,0 z M 696,480 l 24,0 0,24 -24,0 z M 720,480 l 24,0 0,24 -24,0 z M 744,480 l 24,0 0,24 -24,0 z M 840,480 l 24,0 0,24 -24,0 z M 864,480 l 24,0 0,24 -24,0 z M 888,480 l 24,0 0,24 -24,0 z M 936,480 l 24,0 0,24 -24,0 z M 960,480 l 24,0 0,24 -24,0 z M 1008,480 l 24,0 0,24 -24,0 z M 1104,480 l 24,0 0,24 -24,0 z M 1152,480 l 24,0 0,24 -24,0 z M 48,504 l 24,0 0,24 -24,0 z M 72,504 l 24,0 0,24 -24,0 z M 96,504 l 24,0 0,24 -24,0 z M 168,504 l 24,0 0,24 -24,0 z M 216,504 l 24,0 0,24 -24,0 z M 312,504 l 24,0 0,24 -24,0 z M 408,504 l 24,0 0,24 -24,0 z M 456,504 l 24,0 0,24 -24,0 z M 504,504 l 24,0 0,24 -24,0 z M 552,504 l 24,0 0,24 -24,0 z M 576,504 l 24,0 0,24 -24,0 z M 648,504 l 24,0 0,24 -24,0 z M 696,504 l 24,0 0,24 -24,0 z M 720,504 l 24,0 0,24 -24,0 z M 744,504 l 24,0 0,24 -24,0 z M 864,504 l 24,0 0,24 -24,0 z M 888,504 l 24,0 0,24 -24,0 z M 1008,504 l 24,0 0,24 -24,0 z M 1032,504 l 24,0 0,24 -24,0 z M 1056,504 l 24,0 0,24 -24,0 z M 0,528 l 24,0 0,24 -24,0 z M 24,528 l 24,0 0,24 -24,0 z M 96,528 l 24,0 0,24 -24,0 z M 120,528 l 24,0 0,24 -24,0 z M 144,528 l 24,0 0,24 -24,0 z M 168,528 l 24,0 0,24 -24,0 z M 192,528 l 24,0 0,24 -24,0 z M 216,528 l 24,0 0,24 -24,0 z M 240,528 l 24,0 0,24 -24,0 z M 288,528 l 24,0 0,24 -24,0 z M 312,528 l 24,0 0,24 -24,0 z M 360,528 l 24,0 0,24 -24,0 z M 408,528 l 24,0 0,24 -24,0 z M 432,528 l 24,0 0,24 -24,0 z M 456,528 l 24,0 0,24 -24,0 z M 504,528 l 24,0 0,24 -24,0 z M 528,528 l 24,0 0,24 -24,0 z M 552,528 l 24,0 0,24 -24,0 z M 576,528 l 24,0 0,24 -24,0 z M 600,528 l 24,0 0,24 -24,0 z M 624,528 l 24,0 0,24 -24,0 z M 648,528 l 24,0 0,24 -24,0 z M 744,528 l 24,0 0,24 -24,0 z M 816,528 l 24,0 0,24 -24,0 z M 864,528 l 24,0 0,24 -24,0 z M 888,528 l 24,0 0,24 -24,0 z M 912,528 l 24,0 0,24 -24,0 z M 960,528 l 24,0 0,24 -24,0 z M 984,528 l 24,0 0,24 -24,0 z M 1008,528 l 24,0 0,24 -24,0 z M 1032,528 l 24,0 0,24 -24,0 z M 1056,528 l 24,0 0,24 -24,0 z M 1152,528 l 24,0 0,24 -24,0 z M 24,552 l 24,0 0,24 -24,0 z M 48,552 l 24,0 0,24 -24,0 z M 72,552 l 24,0 0,24 -24,0 z M 96,552 l 24,0 0,24 -24,0 z M 192,552 l 24,0 0,24 -24,0 z M 216,552 l 24,0 0,24 -24,0 z M 240,552 l 24,0 0,24 -24,0 z M 288,552 l 24,0 0,24 -24,0 z M 312,552 l 24,0 0,24 -24,0 z M 336,552 l 24,0 0,24 -24,0 z M 384,552 l 24,0 0,24 -24,0 z M 408,552 l 24,0 0,24 -24,0 z M 480,552 l 24,0 0,24 -24,0 z M 504,552 l 24,0 0,24 -24,0 z M 528,552 l 24,0 0,24 -24,0 z M 624,552 l 24,0 0,24 -24,0 z M 672,552 l 24,0 0,24 -24,0 z M 744,552 l 24,0 0,24 -24,0 z M 768,552 l 24,0 0,24 -24,0 z M 888,552 l 24,0 0,24 -24,0 z M 912,552 l 24,0 0,24 -24,0 z M 936,552 l 24,0 0,24 -24,0 z M 960,552 l 24,0 0,24 -24,0 z M 1056,552 l 24,0 0,24 -24,0 z M 1128,552 l 24,0 0,24 -24,0 z M 0,576 l 24,0 0,24 -24,0 z M 24,576 l 24,0 0,24 -24,0 z M 48,576 l 24,0 0,24 -24,0 z M 96,576 l 24,0 0,24 -24,0 z M 144,576 l 24,0 0,24 -24,0 z M 192,576 l 24,0 0,24 -24,0 z M 216,576 l 24,0 0,24 -24,0 z M 240,576 l 24,0 0,24 -24,0 z M 264,576 l 24,0 0,24 -24,0 z M 288,576 l 24,0 0,24 -24,0 z M 312,576 l 24,0 0,24 -24,0 z M 336,576 l 24,0 0,24 -24,0 z M 360,576 l 24,0 0,24 -24,0 z M 432,576 l 24,0 0,24 -24,0 z M 480,576 l 24,0 0,24 -24,0 z M 504,576 l 24,0 0,24 -24,0 z M 528,576 l 24,0 0,24 -24,0 z M 576,576 l 24,0 0,24 -24,0 z M 624,576 l 24,0 0,24 -24,0 z M 696,576 l 24,0 0,24 -24,0 z M 720,576 l 24,0 0,24 -24,0 z M 744,576 l 24,0 0,24 -24,0 z M 840,576 l 24,0 0,24 -24,0 z M 864,576 l 24,0 0,24 -24,0 z M 888,576 l 24,0 0,24 -24,0 z M 912,576 l 24,0 0,24 -24,0 z M 936,576 l 24,0 0,24 -24,0 z M 960,576 l 24,0 0,24 -24,0 z M 1008,576 l 24,0 0,24 -24,0 z M 1056,576 l 24,0 0,24 -24,0 z M 1080,576 l 24,0 0,24 -24,0 z M 1104,576 l 24,0 0,24 -24,0 z M 1152,576 l 24,0 0,24 -24,0 z M 24,600 l 24,0 0,24 -24,0 z M 48,600 l 24,0 0,24 -24,0 z M 72,600 l 24,0 0,24 -24,0 z M 96,600 l 24,0 0,24 -24,0 z M 192,600 l 24,0 0,24 -24,0 z M 216,600 l 24,0 0,24 -24,0 z M 384,600 l 24,0 0,24 -24,0 z M 408,600 l 24,0 0,24 -24,0 z M 456,600 l 24,0 0,24 -24,0 z M 528,600 l 24,0 0,24 -24,0 z M 624,600 l 24,0 0,24 -24,0 z M 696,600 l 24,0 0,24 -24,0 z M 720,600 l 24,0 0,24 -24,0 z M 840,600 l 24,0 0,24 -24,0 z M 936,600 l 24,0 0,24 -24,0 z M 960,600 l 24,0 0,24 -24,0 z M 1056,600 l 24,0 0,24 -24,0 z M 0,624 l 24,0 0,24 -24,0 z M 24,624 l 24,0 0,24 -24,0 z M 48,624 l 24,0 0,24 -24,0 z M 96,624 l 24,0 0,24 -24,0 z M 120,624 l 24,0 0,24 -24,0 z M 144,624 l 24,0 0,24 -24,0 z M 168,624 l 24,0 0,24 -24,0 z M 192,624 l 24,0 0,24 -24,0 z M 216,624 l 24,0 0,24 -24,0 z M 240,624 l 24,0 0,24 -24,0 z M 312,624 l 24,0 0,24 -24,0 z M 336,624 l 24,0 0,24 -24,0 z M 360,624 l 24,0 0,24 -24,0 z M 384,624 l 24,0 0,24 -24,0 z M 408,624 l 24,0 0,24 -24,0 z M 456,624 l 24,0 0,24 -24,0 z M 480,624 l 24,0 0,24 -24,0 z M 528,624 l 24,0 0,24 -24,0 z M 552,624 l 24,0 0,24 -24,0 z M 576,624 l 24,0 0,24 -24,0 z M 600,624 l 24,0 0,24 -24,0 z M 624,624 l 24,0 0,24 -24,0 z M 648,624 l 24,0 0,24 -24,0 z M 744,624 l 24,0 0,24 -24,0 z M 792,624 l 24,0 0,24 -24,0 z M 816,624 l 24,0 0,24 -24,0 z M 840,624 l 24,0 0,24 -24,0 z M 936,624 l 24,0 0,24 -24,0 z M 960,624 l 24,0 0,24 -24,0 z M 984,624 l 24,0 0,24 -24,0 z M 1008,624 l 24,0 0,24 -24,0 z M 1032,624 l 24,0 0,24 -24,0 z M 1056,624 l 24,0 0,24 -24,0 z M 1104,624 l 24,0 0,24 -24,0 z M 1128,624 l 24,0 0,24 -24,0 z M 1152,624 l 24,0 0,24 -24,0 z M 264,648 l 24,0 0,24 -24,0 z M 288,648 l 24,0 0,24 -24,0 z M 312,648 l 24,0 0,24 -24,0 z M 336,648 l 24,0 0,24 -24,0 z M 432,648 l 24,0 0,24 -24,0 z M 456,648 l 24,0 0,24 -24,0 z M 480,648 l 24,0 0,24 -24,0 z M 504,648 l 24,0 0,24 -24,0 z M 552,648 l 24,0 0,24 -24,0 z M 576,648 l 24,0 0,24 -24,0 z M 600,648 l 24,0 0,24 -24,0 z M 648,648 l 24,0 0,24 -24,0 z M 672,648 l 24,0 0,24 -24,0 z M 768,648 l 24,0 0,24 -24,0 z M 792,648 l 24,0 0,24 -24,0 z M 1152,648 l 24,0 0,24 -24,0 z M 0,672 l 24,0 0,24 -24,0 z M 96,672 l 24,0 0,24 -24,0 z M 144,672 l 24,0 0,24 -24,0 z M 240,672 l 24,0 0,24 -24,0 z M 264,672 l 24,0 0,24 -24,0 z M 336,672 l 24,0 0,24 -24,0 z M 384,672 l 24,0 0,24 -24,0 z M 408,672 l 24,0 0,24 -24,0 z M 432,672 l 24,0 0,24 -24,0 z M 504,672 l 24,0 0,24 -24,0 z M 552,672 l 24,0 0,24 -24,0 z M 576,672 l 24,0 0,24 -24,0 z M 600,672 l 24,0 0,24 -24,0 z M 696,672 l 24,0 0,24 -24,0 z M 720,672 l 24,0 0,24 -24,0 z M 744,672 l 24,0 0,24 -24,0 z M 792,672 l 24,0 0,24 -24,0 z M 840,672 l 24,0 0,24 -24,0 z M 864,672 l 24,0 0,24 -24,0 z M 888,672 l 24,0 0,24 -24,0 z M 936,672 l 24,0 0,24 -24,0 z M 984,672 l 24,0 0,24 -24,0 z M 1008,672 l 24,0 0,24 -24,0 z M 1056,672 l 24,0 0,24 -24,0 z M 1080,672 l 24,0 0,24 -24,0 z M 1104,672 l 24,0 0,24 -24,0 z M 0,696 l 24,0 0,24 -24,0 z M 96,696 l 24,0 0,24 -24,0 z M 288,696 l 24,0 0,24 -24,0 z M 312,696 l 24,0 0,24 -24,0 z M 336,696 l 24,0 0,24 -24,0 z M 360,696 l 24,0 0,24 -24,0 z M 384,696 l 24,0 0,24 -24,0 z M 456,696 l 24,0 0,24 -24,0 z M 480,696 l 24,0 0,24 -24,0 z M 504,696 l 24,0 0,24 -24,0 z M 576,696 l 24,0 0,24 -24,0 z M 648,696 l 24,0 0,24 -24,0 z M 672,696 l 24,0 0,24 -24,0 z M 696,696 l 24,0 0,24 -24,0 z M 720,696 l 24,0 0,24 -24,0 z M 888,696 l 24,0 0,24 -24,0 z M 1008,696 l 24,0 0,24 -24,0 z M 1032,696 l 24,0 0,24 -24,0 z M 1080,696 l 24,0 0,24 -24,0 z M 48,720 l 24,0 0,24 -24,0 z M 72,720 l 24,0 0,24 -24,0 z M 96,720 l 24,0 0,24 -24,0 z M 144,720 l 24,0 0,24 -24,0 z M 168,720 l 24,0 0,24 -24,0 z M 192,720 l 24,0 0,24 -24,0 z M 264,720 l 24,0 0,24 -24,0 z M 336,720 l 24,0 0,24 -24,0 z M 360,720 l 24,0 0,24 -24,0 z M 384,720 l 24,0 0,24 -24,0 z M 432,720 l 24,0 0,24 -24,0 z M 480,720 l 24,0 0,24 -24,0 z M 528,720 l 24,0 0,24 -24,0 z M 552,720 l 24,0 0,24 -24,0 z M 576,720 l 24,0 0,24 -24,0 z M 600,720 l 24,0 0,24 -24,0 z M 672,720 l 24,0 0,24 -24,0 z M 744,720 l 24,0 0,24 -24,0 z M 792,720 l 24,0 0,24 -24,0 z M 816,720 l 24,0 0,24 -24,0 z M 888,720 l 24,0 0,24 -24,0 z M 912,720 l 24,0 0,24 -24,0 z M 936,720 l 24,0 0,24 -24,0 z M 984,720 l 24,0 0,24 -24,0 z M 1008,720 l 24,0 0,24 -24,0 z M 1032,720 l 24,0 0,24 -24,0 z M 1056,720 l 24,0 0,24 -24,0 z M 1104,720 l 24,0 0,24 -24,0 z M 1128,720 l 24,0 0,24 -24,0 z M 1152,720 l 24,0 0,24 -24,0 z M 0,744 l 24,0 0,24 -24,0 z M 48,744 l 24,0 0,24 -24,0 z M 96,744 l 24,0 0,24 -24,0 z M 168,744 l 24,0 0,24 -24,0 z M 216,744 l 24,0 0,24 -24,0 z M 264,744 l 24,0 0,24 -24,0 z M 288,744 l 24,0 0,24 -24,0 z M 312,744 l 24,0 0,24 -24,0 z M 336,744 l 24,0 0,24 -24,0 z M 360,744 l 24,0 0,24 -24,0 z M 456,744 l 24,0 0,24 -24,0 z M 480,744 l 24,0 0,24 -24,0 z M 576,744 l 24,0 0,24 -24,0 z M 624,744 l 24,0 0,24 -24,0 z M 648,744 l 24,0 0,24 -24,0 z M 672,744 l 24,0 0,24 -24,0 z M 696,744 l 24,0 0,24 -24,0 z M 720,744 l 24,0 0,24 -24,0 z M 744,744 l 24,0 0,24 -24,0 z M 768,744 l 24,0 0,24 -24,0 z M 792,744 l 24,0 0,24 -24,0 z M 888,744 l 24,0 0,24 -24,0 z M 912,744 l 24,0 0,24 -24,0 z M 936,744 l 24,0 0,24 -24,0 z M 960,744 l 24,0 0,24 -24,0 z M 1032,744 l 24,0 0,24 -24,0 z M 1128,744 l 24,0 0,24 -24,0 z M 1152,744 l 24,0 0,24 -24,0 z M 24,768 l 24,0 0,24 -24,0 z M 144,768 l 24,0 0,24 -24,0 z M 168,768 l 24,0 0,24 -24,0 z M 216,768 l 24,0 0,24 -24,0 z M 264,768 l 24,0 0,24 -24,0 z M 336,768 l 24,0 0,24 -24,0 z M 360,768 l 24,0 0,24 -24,0 z M 384,768 l 24,0 0,24 -24,0 z M 408,768 l 24,0 0,24 -24,0 z M 432,768 l 24,0 0,24 -24,0 z M 456,768 l 24,0 0,24 -24,0 z M 480,768 l 24,0 0,24 -24,0 z M 528,768 l 24,0 0,24 -24,0 z M 552,768 l 24,0 0,24 -24,0 z M 600,768 l 24,0 0,24 -24,0 z M 648,768 l 24,0 0,24 -24,0 z M 696,768 l 24,0 0,24 -24,0 z M 720,768 l 24,0 0,24 -24,0 z M 744,768 l 24,0 0,24 -24,0 z M 864,768 l 24,0 0,24 -24,0 z M 888,768 l 24,0 0,24 -24,0 z M 912,768 l 24,0 0,24 -24,0 z M 936,768 l 24,0 0,24 -24,0 z M 984,768 l 24,0 0,24 -24,0 z M 1056,768 l 24,0 0,24 -24,0 z M 1080,768 l 24,0 0,24 -24,0 z M 1104,768 l 24,0 0,24 -24,0 z M 1128,768 l 24,0 0,24 -24,0 z M 120,792 l 24,0 0,24 -24,0 z M 216,792 l 24,0 0,24 -24,0 z M 240,792 l 24,0 0,24 -24,0 z M 264,792 l 24,0 0,24 -24,0 z M 288,792 l 24,0 0,24 -24,0 z M 336,792 l 24,0 0,24 -24,0 z M 384,792 l 24,0 0,24 -24,0 z M 408,792 l 24,0 0,24 -24,0 z M 432,792 l 24,0 0,24 -24,0 z M 456,792 l 24,0 0,24 -24,0 z M 552,792 l 24,0 0,24 -24,0 z M 576,792 l 24,0 0,24 -24,0 z M 624,792 l 24,0 0,24 -24,0 z M 696,792 l 24,0 0,24 -24,0 z M 720,792 l 24,0 0,24 -24,0 z M 864,792 l 24,0 0,24 -24,0 z M 888,792 l 24,0 0,24 -24,0 z M 936,792 l 24,0 0,24 -24,0 z M 984,792 l 24,0 0,24 -24,0 z M 1032,792 l 24,0 0,24 -24,0 z M 1128,792 l 24,0 0,24 -24,0 z M 0,816 l 24,0 0,24 -24,0 z M 48,816 l 24,0 0,24 -24,0 z M 96,816 l 24,0 0,24 -24,0 z M 120,816 l 24,0 0,24 -24,0 z M 144,816 l 24,0 0,24 -24,0 z M 168,816 l 24,0 0,24 -24,0 z M 240,816 l 24,0 0,24 -24,0 z M 264,816 l 24,0 0,24 -24,0 z M 336,816 l 24,0 0,24 -24,0 z M 360,816 l 24,0 0,24 -24,0 z M 408,816 l 24,0 0,24 -24,0 z M 432,816 l 24,0 0,24 -24,0 z M 480,816 l 24,0 0,24 -24,0 z M 504,816 l 24,0 0,24 -24,0 z M 528,816 l 24,0 0,24 -24,0 z M 576,816 l 24,0 0,24 -24,0 z M 600,816 l 24,0 0,24 -24,0 z M 648,816 l 24,0 0,24 -24,0 z M 672,816 l 24,0 0,24 -24,0 z M 792,816 l 24,0 0,24 -24,0 z M 816,816 l 24,0 0,24 -24,0 z M 840,816 l 24,0 0,24 -24,0 z M 864,816 l 24,0 0,24 -24,0 z M 912,816 l 24,0 0,24 -24,0 z M 936,816 l 24,0 0,24 -24,0 z M 960,816 l 24,0 0,24 -24,0 z M 1008,816 l 24,0 0,24 -24,0 z M 1080,816 l 24,0 0,24 -24,0 z M 1128,816 l 24,0 0,24 -24,0 z M 1152,816 l 24,0 0,24 -24,0 z M 0,840 l 24,0 0,24 -24,0 z M 48,840 l 24,0 0,24 -24,0 z M 72,840 l 24,0 0,24 -24,0 z M 96,840 l 24,0 0,24 -24,0 z M 120,840 l 24,0 0,24 -24,0 z M 168,840 l 24,0 0,24 -24,0 z M 240,840 l 24,0 0,24 -24,0 z M 264,840 l 24,0 0,24 -24,0 z M 312,840 l 24,0 0,24 -24,0 z M 336,840 l 24,0 0,24 -24,0 z M 360,840 l 24,0 0,24 -24,0 z M 384,840 l 24,0 0,24 -24,0 z M 408,840 l 24,0 0,24 -24,0 z M 432,840 l 24,0 0,24 -24,0 z M 576,840 l 24,0 0,24 -24,0 z M 624,840 l 24,0 0,24 -24,0 z M 648,840 l 24,0 0,24 -24,0 z M 672,840 l 24,0 0,24 -24,0 z M 720,840 l 24,0 0,24 -24,0 z M 768,840 l 24,0 0,24 -24,0 z M 792,840 l 24,0 0,24 -24,0 z M 888,840 l 24,0 0,24 -24,0 z M 960,840 l 24,0 0,24 -24,0 z M 1032,840 l 24,0 0,24 -24,0 z M 0,864 l 24,0 0,24 -24,0 z M 72,864 l 24,0 0,24 -24,0 z M 96,864 l 24,0 0,24 -24,0 z M 144,864 l 24,0 0,24 -24,0 z M 192,864 l 24,0 0,24 -24,0 z M 216,864 l 24,0 0,24 -24,0 z M 264,864 l 24,0 0,24 -24,0 z M 288,864 l 24,0 0,24 -24,0 z M 312,864 l 24,0 0,24 -24,0 z M 384,864 l 24,0 0,24 -24,0 z M 480,864 l 24,0 0,24 -24,0 z M 504,864 l 24,0 0,24 -24,0 z M 600,864 l 24,0 0,24 -24,0 z M 648,864 l 24,0 0,24 -24,0 z M 696,864 l 24,0 0,24 -24,0 z M 720,864 l 24,0 0,24 -24,0 z M 744,864 l 24,0 0,24 -24,0 z M 792,864 l 24,0 0,24 -24,0 z M 864,864 l 24,0 0,24 -24,0 z M 936,864 l 24,0 0,24 -24,0 z M 960,864 l 24,0 0,24 -24,0 z M 984,864 l 24,0 0,24 -24,0 z M 1008,864 l 24,0 0,24 -24,0 z M 1032,864 l 24,0 0,24 -24,0 z M 1056,864 l 24,0 0,24 -24,0 z M 1104,864 l 24,0 0,24 -24,0 z M 1128,864 l 24,0 0,24 -24,0 z M 1152,864 l 24,0 0,24 -24,0 z M 0,888 l 24,0 0,24 -24,0 z M 48,888 l 24,0 0,24 -24,0 z M 72,888 l 24,0 0,24 -24,0 z M 192,888 l 24,0 0,24 -24,0 z M 240,888 l 24,0 0,24 -24,0 z M 264,888 l 24,0 0,24 -24,0 z M 312,888 l 24,0 0,24 -24,0 z M 336,888 l 24,0 0,24 -24,0 z M 360,888 l 24,0 0,24 -24,0 z M 384,888 l 24,0 0,24 -24,0 z M 408,888 l 24,0 0,24 -24,0 z M 432,888 l 24,0 0,24 -24,0 z M 456,888 l 24,0 0,24 -24,0 z M 504,888 l 24,0 0,24 -24,0 z M 528,888 l 24,0 0,24 -24,0 z M 576,888 l 24,0 0,24 -24,0 z M 696,888 l 24,0 0,24 -24,0 z M 720,888 l 24,0 0,24 -24,0 z M 888,888 l 24,0 0,24 -24,0 z M 936,888 l 24,0 0,24 -24,0 z M 960,888 l 24,0 0,24 -24,0 z M 1008,888 l 24,0 0,24 -24,0 z M 1032,888 l 24,0 0,24 -24,0 z M 1104,888 l 24,0 0,24 -24,0 z M 1128,888 l 24,0 0,24 -24,0 z M 24,912 l 24,0 0,24 -24,0 z M 120,912 l 24,0 0,24 -24,0 z M 144,912 l 24,0 0,24 -24,0 z M 192,912 l 24,0 0,24 -24,0 z M 216,912 l 24,0 0,24 -24,0 z M 240,912 l 24,0 0,24 -24,0 z M 264,912 l 24,0 0,24 -24,0 z M 288,912 l 24,0 0,24 -24,0 z M 336,912 l 24,0 0,24 -24,0 z M 384,912 l 24,0 0,24 -24,0 z M 456,912 l 24,0 0,24 -24,0 z M 480,912 l 24,0 0,24 -24,0 z M 528,912 l 24,0 0,24 -24,0 z M 552,912 l 24,0 0,24 -24,0 z M 576,912 l 24,0 0,24 -24,0 z M 648,912 l 24,0 0,24 -24,0 z M 672,912 l 24,0 0,24 -24,0 z M 696,912 l 24,0 0,24 -24,0 z M 744,912 l 24,0 0,24 -24,0 z M 792,912 l 24,0 0,24 -24,0 z M 816,912 l 24,0 0,24 -24,0 z M 840,912 l 24,0 0,24 -24,0 z M 912,912 l 24,0 0,24 -24,0 z M 936,912 l 24,0 0,24 -24,0 z M 984,912 l 24,0 0,24 -24,0 z M 1008,912 l 24,0 0,24 -24,0 z M 1080,912 l 24,0 0,24 -24,0 z M 1128,912 l 24,0 0,24 -24,0 z M 1152,912 l 24,0 0,24 -24,0 z M 24,936 l 24,0 0,24 -24,0 z M 48,936 l 24,0 0,24 -24,0 z M 72,936 l 24,0 0,24 -24,0 z M 168,936 l 24,0 0,24 -24,0 z M 192,936 l 24,0 0,24 -24,0 z M 216,936 l 24,0 0,24 -24,0 z M 240,936 l 24,0 0,24 -24,0 z M 288,936 l 24,0 0,24 -24,0 z M 408,936 l 24,0 0,24 -24,0 z M 504,936 l 24,0 0,24 -24,0 z M 552,936 l 24,0 0,24 -24,0 z M 576,936 l 24,0 0,24 -24,0 z M 624,936 l 24,0 0,24 -24,0 z M 648,936 l 24,0 0,24 -24,0 z M 672,936 l 24,0 0,24 -24,0 z M 696,936 l 24,0 0,24 -24,0 z M 744,936 l 24,0 0,24 -24,0 z M 768,936 l 24,0 0,24 -24,0 z M 816,936 l 24,0 0,24 -24,0 z M 912,936 l 24,0 0,24 -24,0 z M 960,936 l 24,0 0,24 -24,0 z M 1056,936 l 24,0 0,24 -24,0 z M 1128,936 l 24,0 0,24 -24,0 z M 1152,936 l 24,0 0,24 -24,0 z M 0,960 l 24,0 0,24 -24,0 z M 24,960 l 24,0 0,24 -24,0 z M 48,960 l 24,0 0,24 -24,0 z M 144,960 l 24,0 0,24 -24,0 z M 168,960 l 24,0 0,24 -24,0 z M 240,960 l 24,0 0,24 -24,0 z M 312,960 l 24,0 0,24 -24,0 z M 432,960 l 24,0 0,24 -24,0 z M 480,960 l 24,0 0,24 -24,0 z M 528,960 l 24,0 0,24 -24,0 z M 552,960 l 24,0 0,24 -24,0 z M 576,960 l 24,0 0,24 -24,0 z M 600,960 l 24,0 0,24 -24,0 z M 624,960 l 24,0 0,24 -24,0 z M 744,960 l 24,0 0,24 -24,0 z M 792,960 l 24,0 0,24 -24,0 z M 816,960 l 24,0 0,24 -24,0 z M 840,960 l 24,0 0,24 -24,0 z M 864,960 l 24,0 0,24 -24,0 z M 912,960 l 24,0 0,24 -24,0 z M 936,960 l 24,0 0,24 -24,0 z M 960,960 l 24,0 0,24 -24,0 z M 984,960 l 24,0 0,24 -24,0 z M 1008,960 l 24,0 0,24 -24,0 z M 1032,960 l 24,0 0,24 -24,0 z M 1056,960 l 24,0 0,24 -24,0 z M 1080,960 l 24,0 0,24 -24,0 z M 1104,960 l 24,0 0,24 -24,0 z M 1128,960 l 24,0 0,24 -24,0 z M 1152,960 l 24,0 0,24 -24,0 z M 192,984 l 24,0 0,24 -24,0 z M 216,984 l 24,0 0,24 -24,0 z M 240,984 l 24,0 0,24 -24,0 z M 288,984 l 24,0 0,24 -24,0 z M 312,984 l 24,0 0,24 -24,0 z M 432,984 l 24,0 0,24 -24,0 z M 504,984 l 24,0 0,24 -24,0 z M 528,984 l 24,0 0,24 -24,0 z M 624,984 l 24,0 0,24 -24,0 z M 648,984 l 24,0 0,24 -24,0 z M 672,984 l 24,0 0,24 -24,0 z M 696,984 l 24,0 0,24 -24,0 z M 720,984 l 24,0 0,24 -24,0 z M 744,984 l 24,0 0,24 -24,0 z M 840,984 l 24,0 0,24 -24,0 z M 888,984 l 24,0 0,24 -24,0 z M 960,984 l 24,0 0,24 -24,0 z M 1056,984 l 24,0 0,24 -24,0 z M 1080,984 l 24,0 0,24 -24,0 z M 0,1008 l 24,0 0,24 -24,0 z M 24,1008 l 24,0 0,24 -24,0 z M 48,1008 l 24,0 0,24 -24,0 z M 72,1008 l 24,0 0,24 -24,0 z M 96,1008 l 24,0 0,24 -24,0 z M 120,1008 l 24,0 0,24 -24,0 z M 144,1008 l 24,0 0,24 -24,0 z M 216,1008 l 24,0 0,24 -24,0 z M 240,1008 l 24,0 0,24 -24,0 z M 336,1008 l 24,0 0,24 -24,0 z M 360,1008 l 24,0 0,24 -24,0 z M 408,1008 l 24,0 0,24 -24,0 z M 456,1008 l 24,0 0,24 -24,0 z M 480,1008 l 24,0 0,24 -24,0 z M 528,1008 l 24,0 0,24 -24,0 z M 576,1008 l 24,0 0,24 -24,0 z M 624,1008 l 24,0 0,24 -24,0 z M 696,1008 l 24,0 0,24 -24,0 z M 768,1008 l 24,0 0,24 -24,0 z M 792,1008 l 24,0 0,24 -24,0 z M 816,1008 l 24,0 0,24 -24,0 z M 864,1008 l 24,0 0,24 -24,0 z M 960,1008 l 24,0 0,24 -24,0 z M 1008,1008 l 24,0 0,24 -24,0 z M 1056,1008 l 24,0 0,24 -24,0 z M 1128,1008 l 24,0 0,24 -24,0 z M 1152,1008 l 24,0 0,24 -24,0 z M 0,1032 l 24,0 0,24 -24,0 z M 144,1032 l 24,0 0,24 -24,0 z M 192,1032 l 24,0 0,24 -24,0 z M 216,1032 l 24,0 0,24 -24,0 z M 264,1032 l 24,0 0,24 -24,0 z M 312,1032 l 24,0 0,24 -24,0 z M 336,1032 l 24,0 0,24 -24,0 z M 432,1032 l 24,0 0,24 -24,0 z M 456,1032 l 24,0 0,24 -24,0 z M 480,1032 l 24,0 0,24 -24,0 z M 504,1032 l 24,0 0,24 -24,0 z M 528,1032 l 24,0 0,24 -24,0 z M 624,1032 l 24,0 0,24 -24,0 z M 648,1032 l 24,0 0,24 -24,0 z M 672,1032 l 24,0 0,24 -24,0 z M 696,1032 l 24,0 0,24 -24,0 z M 720,1032 l 24,0 0,24 -24,0 z M 744,1032 l 24,0 0,24 -24,0 z M 768,1032 l 24,0 0,24 -24,0 z M 792,1032 l 24,0 0,24 -24,0 z M 816,1032 l 24,0 0,24 -24,0 z M 960,1032 l 24,0 0,24 -24,0 z M 1056,1032 l 24,0 0,24 -24,0 z M 1128,1032 l 24,0 0,24 -24,0 z M 0,1056 l 24,0 0,24 -24,0 z M 48,1056 l 24,0 0,24 -24,0 z M 72,1056 l 24,0 0,24 -24,0 z M 96,1056 l 24,0 0,24 -24,0 z M 144,1056 l 24,0 0,24 -24,0 z M 192,1056 l 24,0 0,24 -24,0 z M 216,1056 l 24,0 0,24 -24,0 z M 240,1056 l 24,0 0,24 -24,0 z M 264,1056 l 24,0 0,24 -24,0 z M 408,1056 l 24,0 0,24 -24,0 z M 432,1056 l 24,0 0,24 -24,0 z M 456,1056 l 24,0 0,24 -24,0 z M 528,1056 l 24,0 0,24 -24,0 z M 552,1056 l 24,0 0,24 -24,0 z M 576,1056 l 24,0 0,24 -24,0 z M 600,1056 l 24,0 0,24 -24,0 z M 624,1056 l 24,0 0,24 -24,0 z M 648,1056 l 24,0 0,24 -24,0 z M 744,1056 l 24,0 0,24 -24,0 z M 840,1056 l 24,0 0,24 -24,0 z M 864,1056 l 24,0 0,24 -24,0 z M 912,1056 l 24,0 0,24 -24,0 z M 960,1056 l 24,0 0,24 -24,0 z M 984,1056 l 24,0 0,24 -24,0 z M 1008,1056 l 24,0 0,24 -24,0 z M 1032,1056 l 24,0 0,24 -24,0 z M 1056,1056 l 24,0 0,24 -24,0 z M 1104,1056 l 24,0 0,24 -24,0 z M 1128,1056 l 24,0 0,24 -24,0 z M 1152,1056 l 24,0 0,24 -24,0 z M 0,1080 l 24,0 0,24 -24,0 z M 48,1080 l 24,0 0,24 -24,0 z M 72,1080 l 24,0 0,24 -24,0 z M 96,1080 l 24,0 0,24 -24,0 z M 144,1080 l 24,0 0,24 -24,0 z M 192,1080 l 24,0 0,24 -24,0 z M 216,1080 l 24,0 0,24 -24,0 z M 240,1080 l 24,0 0,24 -24,0 z M 312,1080 l 24,0 0,24 -24,0 z M 360,1080 l 24,0 0,24 -24,0 z M 384,1080 l 24,0 0,24 -24,0 z M 504,1080 l 24,0 0,24 -24,0 z M 528,1080 l 24,0 0,24 -24,0 z M 552,1080 l 24,0 0,24 -24,0 z M 600,1080 l 24,0 0,24 -24,0 z M 624,1080 l 24,0 0,24 -24,0 z M 672,1080 l 24,0 0,24 -24,0 z M 696,1080 l 24,0 0,24 -24,0 z M 720,1080 l 24,0 0,24 -24,0 z M 864,1080 l 24,0 0,24 -24,0 z M 888,1080 l 24,0 0,24 -24,0 z M 960,1080 l 24,0 0,24 -24,0 z M 984,1080 l 24,0 0,24 -24,0 z M 1032,1080 l 24,0 0,24 -24,0 z M 1056,1080 l 24,0 0,24 -24,0 z M 1080,1080 l 24,0 0,24 -24,0 z M 1104,1080 l 24,0 0,24 -24,0 z M 1152,1080 l 24,0 0,24 -24,0 z M 0,1104 l 24,0 0,24 -24,0 z M 48,1104 l 24,0 0,24 -24,0 z M 72,1104 l 24,0 0,24 -24,0 z M 96,1104 l 24,0 0,24 -24,0 z M 144,1104 l 24,0 0,24 -24,0 z M 192,1104 l 24,0 0,24 -24,0 z M 312,1104 l 24,0 0,24 -24,0 z M 336,1104 l 24,0 0,24 -24,0 z M 384,1104 l 24,0 0,24 -24,0 z M 432,1104 l 24,0 0,24 -24,0 z M 456,1104 l 24,0 0,24 -24,0 z M 528,1104 l 24,0 0,24 -24,0 z M 552,1104 l 24,0 0,24 -24,0 z M 576,1104 l 24,0 0,24 -24,0 z M 624,1104 l 24,0 0,24 -24,0 z M 648,1104 l 24,0 0,24 -24,0 z M 696,1104 l 24,0 0,24 -24,0 z M 768,1104 l 24,0 0,24 -24,0 z M 792,1104 l 24,0 0,24 -24,0 z M 816,1104 l 24,0 0,24 -24,0 z M 912,1104 l 24,0 0,24 -24,0 z M 1032,1104 l 24,0 0,24 -24,0 z M 1080,1104 l 24,0 0,24 -24,0 z M 0,1128 l 24,0 0,24 -24,0 z M 144,1128 l 24,0 0,24 -24,0 z M 312,1128 l 24,0 0,24 -24,0 z M 360,1128 l 24,0 0,24 -24,0 z M 384,1128 l 24,0 0,24 -24,0 z M 432,1128 l 24,0 0,24 -24,0 z M 528,1128 l 24,0 0,24 -24,0 z M 576,1128 l 24,0 0,24 -24,0 z M 600,1128 l 24,0 0,24 -24,0 z M 624,1128 l 24,0 0,24 -24,0 z M 672,1128 l 24,0 0,24 -24,0 z M 696,1128 l 24,0 0,24 -24,0 z M 768,1128 l 24,0 0,24 -24,0 z M 816,1128 l 24,0 0,24 -24,0 z M 888,1128 l 24,0 0,24 -24,0 z M 912,1128 l 24,0 0,24 -24,0 z M 1008,1128 l 24,0 0,24 -24,0 z M 1152,1128 l 24,0 0,24 -24,0 z M 0,1152 l 24,0 0,24 -24,0 z M 24,1152 l 24,0 0,24 -24,0 z M 48,1152 l 24,0 0,24 -24,0 z M 72,1152 l 24,0 0,24 -24,0 z M 96,1152 l 24,0 0,24 -24,0 z M 120,1152 l 24,0 0,24 -24,0 z M 144,1152 l 24,0 0,24 -24,0 z M 192,1152 l 24,0 0,24 -24,0 z M 312,1152 l 24,0 0,24 -24,0 z M 360,1152 l 24,0 0,24 -24,0 z M 384,1152 l 24,0 0,24 -24,0 z M 432,1152 l 24,0 0,24 -24,0 z M 456,1152 l 24,0 0,24 -24,0 z M 480,1152 l 24,0 0,24 -24,0 z M 720,1152 l 24,0 0,24 -24,0 z M 840,1152 l 24,0 0,24 -24,0 z M 864,1152 l 24,0 0,24 -24,0 z M 1104,1152 l 24,0 0,24 -24,0 z M 1128,1152 l 24,0 0,24 -24,0 z M 1152,1152 l 24,0 0,24 -24,0 z " />
	</g>
</svg>
