<svg xmlns="http://www.w3.org/2000/svg" viewBox="0 0 720 220" role="img" aria-label="Ghoulhunters program cycle">
  <defs>
    <marker id="arr" markerWidth="8" markerHeight="8" refX="6" refY="3" orient="auto">
      <path d="M0,0 L6,3 L0,6 Z" fill="#1A6B7C"/>
    </marker>
  </defs>
  <style>
    text { font-family: Nunito, Roboto, sans-serif; font-size: 12px; fill: #1A2E1A; }
    .step { fill: #F7F3E8; stroke: #4A7C3F; stroke-width: 2; }
    .title { font-size: 16px; font-weight: bold; fill: #2D5016; }
  </style>
  <text x="360" y="28" text-anchor="middle" class="title">Ghoulhunters program cycle</text>
  <rect class="step" x="20" y="80" width="90" height="44" rx="8"/>
  <text x="65" y="107" text-anchor="middle">EDUCATE</text>
  <rect class="step" x="130" y="80" width="90" height="44" rx="8"/>
  <text x="175" y="107" text-anchor="middle">WATCH</text>
  <rect class="step" x="240" y="80" width="90" height="44" rx="8"/>
  <text x="285" y="107" text-anchor="middle">IDENTIFY</text>
  <rect class="step" x="350" y="80" width="90" height="44" rx="8"/>
  <text x="395" y="107" text-anchor="middle">REPORT</text>
  <rect class="step" x="460" y="80" width="100" height="44" rx="8"/>
  <text x="510" y="107" text-anchor="middle">PREVENT</text>
  <rect class="step" x="580" y="80" width="90" height="44" rx="8"/>
  <text x="625" y="107" text-anchor="middle">OUTREACH</text>
  <line x1="110" y1="102" x2="128" y2="102" stroke="#1A6B7C" stroke-width="2" marker-end="url(#arr)"/>
  <line x1="220" y1="102" x2="238" y2="102" stroke="#1A6B7C" stroke-width="2" marker-end="url(#arr)"/>
  <line x1="330" y1="102" x2="348" y2="102" stroke="#1A6B7C" stroke-width="2" marker-end="url(#arr)"/>
  <line x1="440" y1="102" x2="458" y2="102" stroke="#1A6B7C" stroke-width="2" marker-end="url(#arr)"/>
  <line x1="560" y1="102" x2="578" y2="102" stroke="#1A6B7C" stroke-width="2" marker-end="url(#arr)"/>
  <path d="M 625 124 Q 360 200 65 124" fill="none" stroke="#7CB342" stroke-width="2" stroke-dasharray="6 4" marker-end="url(#arr)"/>
  <text x="360" y="185" text-anchor="middle" font-size="11" fill="#4A5D4A">ongoing community watch along the Brisbane River</text>
</svg>
