<?xml version="1.0" standalone="no"?>
<svg xmlns="http://www.w3.org/2000/svg" version="1.1" width="1188" height="1188">
	<!-- Created with https://api.qrserver.com (QR Code API, see goQR.me/api for information) -->
	<title>QR Code</title>
	<desc>https://ajithjosephthomas.github.io/ghoulhunters/</desc>
	<rect style="fill:rgb(255, 255, 255);fill-opacity:1" x="0" y="0" width="1188" height="1188" />
	<g id="elements">
		<path style="fill:rgb(0, 0, 0)" d="M 0,0 l 36,0 0,36 -36,0 z M 36,0 l 36,0 0,36 -36,0 z M 72,0 l 36,0 0,36 -36,0 z M 108,0 l 36,0 0,36 -36,0 z M 144,0 l 36,0 0,36 -36,0 z M 180,0 l 36,0 0,36 -36,0 z M 216,0 l 36,0 0,36 -36,0 z M 324,0 l 36,0 0,36 -36,0 z M 576,0 l 36,0 0,36 -36,0 z M 648,0 l 36,0 0,36 -36,0 z M 684,0 l 36,0 0,36 -36,0 z M 720,0 l 36,0 0,36 -36,0 z M 756,0 l 36,0 0,36 -36,0 z M 828,0 l 36,0 0,36 -36,0 z M 936,0 l 36,0 0,36 -36,0 z M 972,0 l 36,0 0,36 -36,0 z M 1008,0 l 36,0 0,36 -36,0 z M 1044,0 l 36,0 0,36 -36,0 z M 1080,0 l 36,0 0,36 -36,0 z M 1116,0 l 36,0 0,36 -36,0 z M 1152,0 l 36,0 0,36 -36,0 z M 0,36 l 36,0 0,36 -36,0 z M 216,36 l 36,0 0,36 -36,0 z M 360,36 l 36,0 0,36 -36,0 z M 396,36 l 36,0 0,36 -36,0 z M 432,36 l 36,0 0,36 -36,0 z M 540,36 l 36,0 0,36 -36,0 z M 648,36 l 36,0 0,36 -36,0 z M 756,36 l 36,0 0,36 -36,0 z M 792,36 l 36,0 0,36 -36,0 z M 864,36 l 36,0 0,36 -36,0 z M 936,36 l 36,0 0,36 -36,0 z M 1152,36 l 36,0 0,36 -36,0 z M 0,72 l 36,0 0,36 -36,0 z M 72,72 l 36,0 0,36 -36,0 z M 108,72 l 36,0 0,36 -36,0 z M 144,72 l 36,0 0,36 -36,0 z M 216,72 l 36,0 0,36 -36,0 z M 288,72 l 36,0 0,36 -36,0 z M 360,72 l 36,0 0,36 -36,0 z M 396,72 l 36,0 0,36 -36,0 z M 432,72 l 36,0 0,36 -36,0 z M 504,72 l 36,0 0,36 -36,0 z M 540,72 l 36,0 0,36 -36,0 z M 576,72 l 36,0 0,36 -36,0 z M 756,72 l 36,0 0,36 -36,0 z M 864,72 l 36,0 0,36 -36,0 z M 936,72 l 36,0 0,36 -36,0 z M 1008,72 l 36,0 0,36 -36,0 z M 1044,72 l 36,0 0,36 -36,0 z M 1080,72 l 36,0 0,36 -36,0 z M 1152,72 l 36,0 0,36 -36,0 z M 0,108 l 36,0 0,36 -36,0 z M 72,108 l 36,0 0,36 -36,0 z M 108,108 l 36,0 0,36 -36,0 z M 144,108 l 36,0 0,36 -36,0 z M 216,108 l 36,0 0,36 -36,0 z M 288,108 l 36,0 0,36 -36,0 z M 360,108 l 36,0 0,36 -36,0 z M 432,108 l 36,0 0,36 -36,0 z M 540,108 l 36,0 0,36 -36,0 z M 648,108 l 36,0 0,36 -36,0 z M 684,108 l 36,0 0,36 -36,0 z M 792,108 l 36,0 0,36 -36,0 z M 828,108 l 36,0 0,36 -36,0 z M 936,108 l 36,0 0,36 -36,0 z M 1008,108 l 36,0 0,36 -36,0 z M 1044,108 l 36,0 0,36 -36,0 z M 1080,108 l 36,0 0,36 -36,0 z M 1152,108 l 36,0 0,36 -36,0 z M 0,144 l 36,0 0,36 -36,0 z M 72,144 l 36,0 0,36 -36,0 z M 108,144 l 36,0 0,36 -36,0 z M 144,144 l 36,0 0,36 -36,0 z M 216,144 l 36,0 0,36 -36,0 z M 288,144 l 36,0 0,36 -36,0 z M 324,144 l 36,0 0,36 -36,0 z M 396,144 l 36,0 0,36 -36,0 z M 468,144 l 36,0 0,36 -36,0 z M 504,144 l 36,0 0,36 -36,0 z M 540,144 l 36,0 0,36 -36,0 z M 576,144 l 36,0 0,36 -36,0 z M 612,144 l 36,0 0,36 -36,0 z M 720,144 l 36,0 0,36 -36,0 z M 828,144 l 36,0 0,36 -36,0 z M 936,144 l 36,0 0,36 -36,0 z M 1008,144 l 36,0 0,36 -36,0 z M 1044,144 l 36,0 0,36 -36,0 z M 1080,144 l 36,0 0,36 -36,0 z M 1152,144 l 36,0 0,36 -36,0 z M 0,180 l 36,0 0,36 -36,0 z M 216,180 l 36,0 0,36 -36,0 z M 288,180 l 36,0 0,36 -36,0 z M 324,180 l 36,0 0,36 -36,0 z M 396,180 l 36,0 0,36 -36,0 z M 432,180 l 36,0 0,36 -36,0 z M 612,180 l 36,0 0,36 -36,0 z M 684,180 l 36,0 0,36 -36,0 z M 864,180 l 36,0 0,36 -36,0 z M 936,180 l 36,0 0,36 -36,0 z M 1152,180 l 36,0 0,36 -36,0 z M 0,216 l 36,0 0,36 -36,0 z M 36,216 l 36,0 0,36 -36,0 z M 72,216 l 36,0 0,36 -36,0 z M 108,216 l 36,0 0,36 -36,0 z M 144,216 l 36,0 0,36 -36,0 z M 180,216 l 36,0 0,36 -36,0 z M 216,216 l 36,0 0,36 -36,0 z M 288,216 l 36,0 0,36 -36,0 z M 360,216 l 36,0 0,36 -36,0 z M 432,216 l 36,0 0,36 -36,0 z M 504,216 l 36,0 0,36 -36,0 z M 576,216 l 36,0 0,36 -36,0 z M 648,216 l 36,0 0,36 -36,0 z M 720,216 l 36,0 0,36 -36,0 z M 792,216 l 36,0 0,36 -36,0 z M 864,216 l 36,0 0,36 -36,0 z M 936,216 l 36,0 0,36 -36,0 z M 972,216 l 36,0 0,36 -36,0 z M 1008,216 l 36,0 0,36 -36,0 z M 1044,216 l 36,0 0,36 -36,0 z M 1080,216 l 36,0 0,36 -36,0 z M 1116,216 l 36,0 0,36 -36,0 z M 1152,216 l 36,0 0,36 -36,0 z M 288,252 l 36,0 0,36 -36,0 z M 360,252 l 36,0 0,36 -36,0 z M 396,252 l 36,0 0,36 -36,0 z M 576,252 l 36,0 0,36 -36,0 z M 684,252 l 36,0 0,36 -36,0 z M 720,252 l 36,0 0,36 -36,0 z M 756,252 l 36,0 0,36 -36,0 z M 828,252 l 36,0 0,36 -36,0 z M 0,288 l 36,0 0,36 -36,0 z M 72,288 l 36,0 0,36 -36,0 z M 108,288 l 36,0 0,36 -36,0 z M 144,288 l 36,0 0,36 -36,0 z M 180,288 l 36,0 0,36 -36,0 z M 216,288 l 36,0 0,36 -36,0 z M 324,288 l 36,0 0,36 -36,0 z M 432,288 l 36,0 0,36 -36,0 z M 468,288 l 36,0 0,36 -36,0 z M 504,288 l 36,0 0,36 -36,0 z M 576,288 l 36,0 0,36 -36,0 z M 612,288 l 36,0 0,36 -36,0 z M 684,288 l 36,0 0,36 -36,0 z M 792,288 l 36,0 0,36 -36,0 z M 828,288 l 36,0 0,36 -36,0 z M 864,288 l 36,0 0,36 -36,0 z M 936,288 l 36,0 0,36 -36,0 z M 972,288 l 36,0 0,36 -36,0 z M 1008,288 l 36,0 0,36 -36,0 z M 1044,288 l 36,0 0,36 -36,0 z M 1080,288 l 36,0 0,36 -36,0 z M 36,324 l 36,0 0,36 -36,0 z M 144,324 l 36,0 0,36 -36,0 z M 180,324 l 36,0 0,36 -36,0 z M 252,324 l 36,0 0,36 -36,0 z M 324,324 l 36,0 0,36 -36,0 z M 396,324 l 36,0 0,36 -36,0 z M 468,324 l 36,0 0,36 -36,0 z M 504,324 l 36,0 0,36 -36,0 z M 576,324 l 36,0 0,36 -36,0 z M 612,324 l 36,0 0,36 -36,0 z M 648,324 l 36,0 0,36 -36,0 z M 684,324 l 36,0 0,36 -36,0 z M 720,324 l 36,0 0,36 -36,0 z M 756,324 l 36,0 0,36 -36,0 z M 828,324 l 36,0 0,36 -36,0 z M 936,324 l 36,0 0,36 -36,0 z M 972,324 l 36,0 0,36 -36,0 z M 1044,324 l 36,0 0,36 -36,0 z M 1080,324 l 36,0 0,36 -36,0 z M 1152,324 l 36,0 0,36 -36,0 z M 36,360 l 36,0 0,36 -36,0 z M 72,360 l 36,0 0,36 -36,0 z M 108,360 l 36,0 0,36 -36,0 z M 180,360 l 36,0 0,36 -36,0 z M 216,360 l 36,0 0,36 -36,0 z M 252,360 l 36,0 0,36 -36,0 z M 360,360 l 36,0 0,36 -36,0 z M 468,360 l 36,0 0,36 -36,0 z M 504,360 l 36,0 0,36 -36,0 z M 540,360 l 36,0 0,36 -36,0 z M 576,360 l 36,0 0,36 -36,0 z M 612,360 l 36,0 0,36 -36,0 z M 756,360 l 36,0 0,36 -36,0 z M 792,360 l 36,0 0,36 -36,0 z M 864,360 l 36,0 0,36 -36,0 z M 900,360 l 36,0 0,36 -36,0 z M 936,360 l 36,0 0,36 -36,0 z M 1008,360 l 36,0 0,36 -36,0 z M 1080,360 l 36,0 0,36 -36,0 z M 1116,360 l 36,0 0,36 -36,0 z M 0,396 l 36,0 0,36 -36,0 z M 36,396 l 36,0 0,36 -36,0 z M 72,396 l 36,0 0,36 -36,0 z M 108,396 l 36,0 0,36 -36,0 z M 144,396 l 36,0 0,36 -36,0 z M 252,396 l 36,0 0,36 -36,0 z M 360,396 l 36,0 0,36 -36,0 z M 432,396 l 36,0 0,36 -36,0 z M 468,396 l 36,0 0,36 -36,0 z M 540,396 l 36,0 0,36 -36,0 z M 612,396 l 36,0 0,36 -36,0 z M 648,396 l 36,0 0,36 -36,0 z M 720,396 l 36,0 0,36 -36,0 z M 756,396 l 36,0 0,36 -36,0 z M 792,396 l 36,0 0,36 -36,0 z M 900,396 l 36,0 0,36 -36,0 z M 936,396 l 36,0 0,36 -36,0 z M 1008,396 l 36,0 0,36 -36,0 z M 1044,396 l 36,0 0,36 -36,0 z M 1080,396 l 36,0 0,36 -36,0 z M 1152,396 l 36,0 0,36 -36,0 z M 36,432 l 36,0 0,36 -36,0 z M 108,432 l 36,0 0,36 -36,0 z M 180,432 l 36,0 0,36 -36,0 z M 216,432 l 36,0 0,36 -36,0 z M 252,432 l 36,0 0,36 -36,0 z M 288,432 l 36,0 0,36 -36,0 z M 324,432 l 36,0 0,36 -36,0 z M 396,432 l 36,0 0,36 -36,0 z M 432,432 l 36,0 0,36 -36,0 z M 504,432 l 36,0 0,36 -36,0 z M 576,432 l 36,0 0,36 -36,0 z M 720,432 l 36,0 0,36 -36,0 z M 792,432 l 36,0 0,36 -36,0 z M 864,432 l 36,0 0,36 -36,0 z M 900,432 l 36,0 0,36 -36,0 z M 972,432 l 36,0 0,36 -36,0 z M 1008,432 l 36,0 0,36 -36,0 z M 1044,432 l 36,0 0,36 -36,0 z M 1116,432 l 36,0 0,36 -36,0 z M 1152,432 l 36,0 0,36 -36,0 z M 36,468 l 36,0 0,36 -36,0 z M 72,468 l 36,0 0,36 -36,0 z M 108,468 l 36,0 0,36 -36,0 z M 180,468 l 36,0 0,36 -36,0 z M 252,468 l 36,0 0,36 -36,0 z M 324,468 l 36,0 0,36 -36,0 z M 360,468 l 36,0 0,36 -36,0 z M 468,468 l 36,0 0,36 -36,0 z M 540,468 l 36,0 0,36 -36,0 z M 612,468 l 36,0 0,36 -36,0 z M 648,468 l 36,0 0,36 -36,0 z M 792,468 l 36,0 0,36 -36,0 z M 828,468 l 36,0 0,36 -36,0 z M 900,468 l 36,0 0,36 -36,0 z M 936,468 l 36,0 0,36 -36,0 z M 1116,468 l 36,0 0,36 -36,0 z M 1152,468 l 36,0 0,36 -36,0 z M 0,504 l 36,0 0,36 -36,0 z M 36,504 l 36,0 0,36 -36,0 z M 108,504 l 36,0 0,36 -36,0 z M 180,504 l 36,0 0,36 -36,0 z M 216,504 l 36,0 0,36 -36,0 z M 324,504 l 36,0 0,36 -36,0 z M 468,504 l 36,0 0,36 -36,0 z M 504,504 l 36,0 0,36 -36,0 z M 540,504 l 36,0 0,36 -36,0 z M 576,504 l 36,0 0,36 -36,0 z M 720,504 l 36,0 0,36 -36,0 z M 792,504 l 36,0 0,36 -36,0 z M 900,504 l 36,0 0,36 -36,0 z M 936,504 l 36,0 0,36 -36,0 z M 972,504 l 36,0 0,36 -36,0 z M 1044,504 l 36,0 0,36 -36,0 z M 1080,504 l 36,0 0,36 -36,0 z M 1116,504 l 36,0 0,36 -36,0 z M 0,540 l 36,0 0,36 -36,0 z M 36,540 l 36,0 0,36 -36,0 z M 72,540 l 36,0 0,36 -36,0 z M 108,540 l 36,0 0,36 -36,0 z M 180,540 l 36,0 0,36 -36,0 z M 324,540 l 36,0 0,36 -36,0 z M 360,540 l 36,0 0,36 -36,0 z M 396,540 l 36,0 0,36 -36,0 z M 504,540 l 36,0 0,36 -36,0 z M 540,540 l 36,0 0,36 -36,0 z M 756,540 l 36,0 0,36 -36,0 z M 792,540 l 36,0 0,36 -36,0 z M 900,540 l 36,0 0,36 -36,0 z M 936,540 l 36,0 0,36 -36,0 z M 972,540 l 36,0 0,36 -36,0 z M 1008,540 l 36,0 0,36 -36,0 z M 1044,540 l 36,0 0,36 -36,0 z M 1080,540 l 36,0 0,36 -36,0 z M 0,576 l 36,0 0,36 -36,0 z M 36,576 l 36,0 0,36 -36,0 z M 144,576 l 36,0 0,36 -36,0 z M 216,576 l 36,0 0,36 -36,0 z M 252,576 l 36,0 0,36 -36,0 z M 432,576 l 36,0 0,36 -36,0 z M 468,576 l 36,0 0,36 -36,0 z M 540,576 l 36,0 0,36 -36,0 z M 612,576 l 36,0 0,36 -36,0 z M 720,576 l 36,0 0,36 -36,0 z M 792,576 l 36,0 0,36 -36,0 z M 900,576 l 36,0 0,36 -36,0 z M 972,576 l 36,0 0,36 -36,0 z M 1008,576 l 36,0 0,36 -36,0 z M 1152,576 l 36,0 0,36 -36,0 z M 0,612 l 36,0 0,36 -36,0 z M 72,612 l 36,0 0,36 -36,0 z M 144,612 l 36,0 0,36 -36,0 z M 252,612 l 36,0 0,36 -36,0 z M 360,612 l 36,0 0,36 -36,0 z M 396,612 l 36,0 0,36 -36,0 z M 432,612 l 36,0 0,36 -36,0 z M 576,612 l 36,0 0,36 -36,0 z M 648,612 l 36,0 0,36 -36,0 z M 684,612 l 36,0 0,36 -36,0 z M 720,612 l 36,0 0,36 -36,0 z M 756,612 l 36,0 0,36 -36,0 z M 792,612 l 36,0 0,36 -36,0 z M 828,612 l 36,0 0,36 -36,0 z M 936,612 l 36,0 0,36 -36,0 z M 972,612 l 36,0 0,36 -36,0 z M 1044,612 l 36,0 0,36 -36,0 z M 1080,612 l 36,0 0,36 -36,0 z M 1152,612 l 36,0 0,36 -36,0 z M 0,648 l 36,0 0,36 -36,0 z M 108,648 l 36,0 0,36 -36,0 z M 144,648 l 36,0 0,36 -36,0 z M 216,648 l 36,0 0,36 -36,0 z M 288,648 l 36,0 0,36 -36,0 z M 396,648 l 36,0 0,36 -36,0 z M 432,648 l 36,0 0,36 -36,0 z M 468,648 l 36,0 0,36 -36,0 z M 540,648 l 36,0 0,36 -36,0 z M 576,648 l 36,0 0,36 -36,0 z M 648,648 l 36,0 0,36 -36,0 z M 900,648 l 36,0 0,36 -36,0 z M 972,648 l 36,0 0,36 -36,0 z M 1008,648 l 36,0 0,36 -36,0 z M 1080,648 l 36,0 0,36 -36,0 z M 0,684 l 36,0 0,36 -36,0 z M 72,684 l 36,0 0,36 -36,0 z M 288,684 l 36,0 0,36 -36,0 z M 324,684 l 36,0 0,36 -36,0 z M 432,684 l 36,0 0,36 -36,0 z M 576,684 l 36,0 0,36 -36,0 z M 756,684 l 36,0 0,36 -36,0 z M 864,684 l 36,0 0,36 -36,0 z M 900,684 l 36,0 0,36 -36,0 z M 972,684 l 36,0 0,36 -36,0 z M 1008,684 l 36,0 0,36 -36,0 z M 1044,684 l 36,0 0,36 -36,0 z M 1080,684 l 36,0 0,36 -36,0 z M 1152,684 l 36,0 0,36 -36,0 z M 0,720 l 36,0 0,36 -36,0 z M 72,720 l 36,0 0,36 -36,0 z M 108,720 l 36,0 0,36 -36,0 z M 144,720 l 36,0 0,36 -36,0 z M 216,720 l 36,0 0,36 -36,0 z M 288,720 l 36,0 0,36 -36,0 z M 324,720 l 36,0 0,36 -36,0 z M 396,720 l 36,0 0,36 -36,0 z M 468,720 l 36,0 0,36 -36,0 z M 504,720 l 36,0 0,36 -36,0 z M 540,720 l 36,0 0,36 -36,0 z M 648,720 l 36,0 0,36 -36,0 z M 684,720 l 36,0 0,36 -36,0 z M 792,720 l 36,0 0,36 -36,0 z M 828,720 l 36,0 0,36 -36,0 z M 900,720 l 36,0 0,36 -36,0 z M 972,720 l 36,0 0,36 -36,0 z M 1008,720 l 36,0 0,36 -36,0 z M 1044,720 l 36,0 0,36 -36,0 z M 0,756 l 36,0 0,36 -36,0 z M 36,756 l 36,0 0,36 -36,0 z M 72,756 l 36,0 0,36 -36,0 z M 144,756 l 36,0 0,36 -36,0 z M 180,756 l 36,0 0,36 -36,0 z M 252,756 l 36,0 0,36 -36,0 z M 324,756 l 36,0 0,36 -36,0 z M 432,756 l 36,0 0,36 -36,0 z M 468,756 l 36,0 0,36 -36,0 z M 504,756 l 36,0 0,36 -36,0 z M 540,756 l 36,0 0,36 -36,0 z M 576,756 l 36,0 0,36 -36,0 z M 720,756 l 36,0 0,36 -36,0 z M 756,756 l 36,0 0,36 -36,0 z M 792,756 l 36,0 0,36 -36,0 z M 828,756 l 36,0 0,36 -36,0 z M 936,756 l 36,0 0,36 -36,0 z M 1044,756 l 36,0 0,36 -36,0 z M 1152,756 l 36,0 0,36 -36,0 z M 0,792 l 36,0 0,36 -36,0 z M 72,792 l 36,0 0,36 -36,0 z M 108,792 l 36,0 0,36 -36,0 z M 216,792 l 36,0 0,36 -36,0 z M 252,792 l 36,0 0,36 -36,0 z M 288,792 l 36,0 0,36 -36,0 z M 324,792 l 36,0 0,36 -36,0 z M 396,792 l 36,0 0,36 -36,0 z M 432,792 l 36,0 0,36 -36,0 z M 648,792 l 36,0 0,36 -36,0 z M 684,792 l 36,0 0,36 -36,0 z M 864,792 l 36,0 0,36 -36,0 z M 1008,792 l 36,0 0,36 -36,0 z M 1044,792 l 36,0 0,36 -36,0 z M 1116,792 l 36,0 0,36 -36,0 z M 0,828 l 36,0 0,36 -36,0 z M 108,828 l 36,0 0,36 -36,0 z M 144,828 l 36,0 0,36 -36,0 z M 252,828 l 36,0 0,36 -36,0 z M 468,828 l 36,0 0,36 -36,0 z M 504,828 l 36,0 0,36 -36,0 z M 576,828 l 36,0 0,36 -36,0 z M 684,828 l 36,0 0,36 -36,0 z M 720,828 l 36,0 0,36 -36,0 z M 756,828 l 36,0 0,36 -36,0 z M 792,828 l 36,0 0,36 -36,0 z M 864,828 l 36,0 0,36 -36,0 z M 900,828 l 36,0 0,36 -36,0 z M 1080,828 l 36,0 0,36 -36,0 z M 1116,828 l 36,0 0,36 -36,0 z M 0,864 l 36,0 0,36 -36,0 z M 108,864 l 36,0 0,36 -36,0 z M 216,864 l 36,0 0,36 -36,0 z M 252,864 l 36,0 0,36 -36,0 z M 288,864 l 36,0 0,36 -36,0 z M 324,864 l 36,0 0,36 -36,0 z M 360,864 l 36,0 0,36 -36,0 z M 432,864 l 36,0 0,36 -36,0 z M 468,864 l 36,0 0,36 -36,0 z M 612,864 l 36,0 0,36 -36,0 z M 684,864 l 36,0 0,36 -36,0 z M 792,864 l 36,0 0,36 -36,0 z M 828,864 l 36,0 0,36 -36,0 z M 864,864 l 36,0 0,36 -36,0 z M 900,864 l 36,0 0,36 -36,0 z M 936,864 l 36,0 0,36 -36,0 z M 972,864 l 36,0 0,36 -36,0 z M 1008,864 l 36,0 0,36 -36,0 z M 288,900 l 36,0 0,36 -36,0 z M 324,900 l 36,0 0,36 -36,0 z M 360,900 l 36,0 0,36 -36,0 z M 432,900 l 36,0 0,36 -36,0 z M 468,900 l 36,0 0,36 -36,0 z M 504,900 l 36,0 0,36 -36,0 z M 576,900 l 36,0 0,36 -36,0 z M 612,900 l 36,0 0,36 -36,0 z M 684,900 l 36,0 0,36 -36,0 z M 720,900 l 36,0 0,36 -36,0 z M 756,900 l 36,0 0,36 -36,0 z M 864,900 l 36,0 0,36 -36,0 z M 1008,900 l 36,0 0,36 -36,0 z M 1080,900 l 36,0 0,36 -36,0 z M 1152,900 l 36,0 0,36 -36,0 z M 0,936 l 36,0 0,36 -36,0 z M 36,936 l 36,0 0,36 -36,0 z M 72,936 l 36,0 0,36 -36,0 z M 108,936 l 36,0 0,36 -36,0 z M 144,936 l 36,0 0,36 -36,0 z M 180,936 l 36,0 0,36 -36,0 z M 216,936 l 36,0 0,36 -36,0 z M 324,936 l 36,0 0,36 -36,0 z M 504,936 l 36,0 0,36 -36,0 z M 540,936 l 36,0 0,36 -36,0 z M 612,936 l 36,0 0,36 -36,0 z M 828,936 l 36,0 0,36 -36,0 z M 864,936 l 36,0 0,36 -36,0 z M 936,936 l 36,0 0,36 -36,0 z M 1008,936 l 36,0 0,36 -36,0 z M 1080,936 l 36,0 0,36 -36,0 z M 1116,936 l 36,0 0,36 -36,0 z M 0,972 l 36,0 0,36 -36,0 z M 216,972 l 36,0 0,36 -36,0 z M 288,972 l 36,0 0,36 -36,0 z M 396,972 l 36,0 0,36 -36,0 z M 468,972 l 36,0 0,36 -36,0 z M 576,972 l 36,0 0,36 -36,0 z M 612,972 l 36,0 0,36 -36,0 z M 648,972 l 36,0 0,36 -36,0 z M 756,972 l 36,0 0,36 -36,0 z M 792,972 l 36,0 0,36 -36,0 z M 828,972 l 36,0 0,36 -36,0 z M 864,972 l 36,0 0,36 -36,0 z M 1008,972 l 36,0 0,36 -36,0 z M 1044,972 l 36,0 0,36 -36,0 z M 1080,972 l 36,0 0,36 -36,0 z M 1116,972 l 36,0 0,36 -36,0 z M 0,1008 l 36,0 0,36 -36,0 z M 72,1008 l 36,0 0,36 -36,0 z M 108,1008 l 36,0 0,36 -36,0 z M 144,1008 l 36,0 0,36 -36,0 z M 216,1008 l 36,0 0,36 -36,0 z M 288,1008 l 36,0 0,36 -36,0 z M 360,1008 l 36,0 0,36 -36,0 z M 468,1008 l 36,0 0,36 -36,0 z M 504,1008 l 36,0 0,36 -36,0 z M 576,1008 l 36,0 0,36 -36,0 z M 864,1008 l 36,0 0,36 -36,0 z M 900,1008 l 36,0 0,36 -36,0 z M 936,1008 l 36,0 0,36 -36,0 z M 972,1008 l 36,0 0,36 -36,0 z M 1008,1008 l 36,0 0,36 -36,0 z M 1044,1008 l 36,0 0,36 -36,0 z M 1116,1008 l 36,0 0,36 -36,0 z M 0,1044 l 36,0 0,36 -36,0 z M 72,1044 l 36,0 0,36 -36,0 z M 108,1044 l 36,0 0,36 -36,0 z M 144,1044 l 36,0 0,36 -36,0 z M 216,1044 l 36,0 0,36 -36,0 z M 288,1044 l 36,0 0,36 -36,0 z M 360,1044 l 36,0 0,36 -36,0 z M 396,1044 l 36,0 0,36 -36,0 z M 468,1044 l 36,0 0,36 -36,0 z M 540,1044 l 36,0 0,36 -36,0 z M 648,1044 l 36,0 0,36 -36,0 z M 756,1044 l 36,0 0,36 -36,0 z M 900,1044 l 36,0 0,36 -36,0 z M 1008,1044 l 36,0 0,36 -36,0 z M 1044,1044 l 36,0 0,36 -36,0 z M 1116,1044 l 36,0 0,36 -36,0 z M 1152,1044 l 36,0 0,36 -36,0 z M 0,1080 l 36,0 0,36 -36,0 z M 72,1080 l 36,0 0,36 -36,0 z M 108,1080 l 36,0 0,36 -36,0 z M 144,1080 l 36,0 0,36 -36,0 z M 216,1080 l 36,0 0,36 -36,0 z M 288,1080 l 36,0 0,36 -36,0 z M 324,1080 l 36,0 0,36 -36,0 z M 360,1080 l 36,0 0,36 -36,0 z M 432,1080 l 36,0 0,36 -36,0 z M 504,1080 l 36,0 0,36 -36,0 z M 540,1080 l 36,0 0,36 -36,0 z M 576,1080 l 36,0 0,36 -36,0 z M 612,1080 l 36,0 0,36 -36,0 z M 648,1080 l 36,0 0,36 -36,0 z M 720,1080 l 36,0 0,36 -36,0 z M 756,1080 l 36,0 0,36 -36,0 z M 792,1080 l 36,0 0,36 -36,0 z M 936,1080 l 36,0 0,36 -36,0 z M 972,1080 l 36,0 0,36 -36,0 z M 1044,1080 l 36,0 0,36 -36,0 z M 0,1116 l 36,0 0,36 -36,0 z M 216,1116 l 36,0 0,36 -36,0 z M 360,1116 l 36,0 0,36 -36,0 z M 396,1116 l 36,0 0,36 -36,0 z M 432,1116 l 36,0 0,36 -36,0 z M 468,1116 l 36,0 0,36 -36,0 z M 504,1116 l 36,0 0,36 -36,0 z M 540,1116 l 36,0 0,36 -36,0 z M 684,1116 l 36,0 0,36 -36,0 z M 720,1116 l 36,0 0,36 -36,0 z M 756,1116 l 36,0 0,36 -36,0 z M 792,1116 l 36,0 0,36 -36,0 z M 900,1116 l 36,0 0,36 -36,0 z M 936,1116 l 36,0 0,36 -36,0 z M 1008,1116 l 36,0 0,36 -36,0 z M 1044,1116 l 36,0 0,36 -36,0 z M 1080,1116 l 36,0 0,36 -36,0 z M 0,1152 l 36,0 0,36 -36,0 z M 36,1152 l 36,0 0,36 -36,0 z M 72,1152 l 36,0 0,36 -36,0 z M 108,1152 l 36,0 0,36 -36,0 z M 144,1152 l 36,0 0,36 -36,0 z M 180,1152 l 36,0 0,36 -36,0 z M 216,1152 l 36,0 0,36 -36,0 z M 288,1152 l 36,0 0,36 -36,0 z M 324,1152 l 36,0 0,36 -36,0 z M 432,1152 l 36,0 0,36 -36,0 z M 468,1152 l 36,0 0,36 -36,0 z M 504,1152 l 36,0 0,36 -36,0 z M 540,1152 l 36,0 0,36 -36,0 z M 612,1152 l 36,0 0,36 -36,0 z M 648,1152 l 36,0 0,36 -36,0 z M 684,1152 l 36,0 0,36 -36,0 z M 720,1152 l 36,0 0,36 -36,0 z M 792,1152 l 36,0 0,36 -36,0 z M 828,1152 l 36,0 0,36 -36,0 z M 864,1152 l 36,0 0,36 -36,0 z M 972,1152 l 36,0 0,36 -36,0 z M 1116,1152 l 36,0 0,36 -36,0 z " />
	</g>
</svg>
